<svg width="120" height="120" viewBox="0 0 120 120" fill="none" xmlns="http://www.w3.org/2000/svg">
<rect width="120" height="120" fill="white"/>
<path fill-rule="evenodd" clip-rule="evenodd" d="M85.1454 19H76.3192C75.9923 19 75.6654 19.1637 75.3385 19.3273L59.6474 35.0399C59.1571 35.5309 58.5033 35.5309 58.0129 35.0399L53.5998 30.6208C53.4363 30.4571 53.1094 30.2934 52.7825 30.2934C52.1287 30.2934 51.6384 30.7844 51.6384 31.4391L48.0425 56.8084C47.8791 57.6267 48.206 57.9541 48.6963 58.4451C52.2922 61.8822 54.9074 64.6647 58.3398 68.1018C58.8302 68.5928 59.484 68.5928 59.9743 68.1018C65.0412 63.0279 69.2909 58.7725 74.3578 53.6986C75.3385 52.8802 75.502 53.8623 75.502 53.8623L80.7323 95.2715C80.7323 95.9261 81.3861 96.4172 81.8765 96.4172H82.0399H82.2034L88.5779 95.1078L89.2317 99.6906C89.3951 100.345 89.722 101 90.5393 101H99.6924C100.346 101 101 100.345 101 99.6906L100.51 95.9262C100.51 95.7625 100.51 95.7625 100.51 95.5988L98.7117 82.505C98.5483 81.8503 98.2214 81.1956 97.4041 81.1956H94.6255L86.2896 19.982C86.2896 19.491 85.7992 19 85.1454 19Z" fill="#38B1DE"/>
<path fill-rule="evenodd" clip-rule="evenodd" d="M34.9218 19H43.7855C44.1137 19 44.442 19.1642 44.7703 19.3285L48.5456 23.5989C49.038 24.0916 49.038 24.0916 49.038 24.5844L44.442 57.1052C44.442 57.5979 44.442 58.2549 44.9344 58.7476L58.23 72.2158C58.7224 72.7086 59.379 72.7086 59.8714 72.2158L70.7048 61.2113C71.3613 60.3901 72.8386 60.0616 72.8386 61.7041L75.9573 86.341C76.1214 87.1622 75.7932 87.4907 75.3007 87.9835C71.6896 91.4326 62.9901 97.1813 59.5431 100.63C59.0507 101.123 58.3941 101.123 57.9017 100.63C52.8133 95.5388 46.9042 91.5969 41.8158 86.5053C41.3233 86.0125 40.6668 85.684 40.5026 86.6695L39.3536 95.8673C39.3536 96.0315 38.8612 97.1813 37.8763 96.8528L31.3107 95.5388L30.6541 99.645C30.4899 100.302 30.1617 100.959 29.341 100.959H20.3131C19.6566 100.959 19 100.466 19 99.645L21.298 82.5633C21.4621 81.9064 21.7904 81.2494 22.6111 81.2494H25.5657L33.6086 19.9855C33.7728 19.4927 34.2652 19 34.9218 19Z" fill="#494949"/>
</svg>
