<svg xmlns="http://www.w3.org/2000/svg" viewBox="0 0 24 24"><path d="M15.783 7.902a2.724 2.724 0 0 0-.673-1 3.09 3.09 0 0 0-1.17-.66 7.62 7.62 0 0 0-1.95-.24 7.477 7.477 0 0 0-1.951.24 3.091 3.091 0 0 0-1.132.65 2.612 2.612 0 0 0-.673 1c-.151.426-.227 1.219-.224 1.672h2.194c-.004-.183.023-.708.079-.882.05-.176.145-.337.267-.47.411-.324.8-.462 1.453-.462s1.026.137 1.447.472c.122.133.234.294.285.47.051.175.078.357.078.54a1.68 1.68 0 0 1-.214.9 2.49 2.49 0 0 1-.517.6c-.213.182-.438.35-.673.5-.25.151-.48.336-.683.55-.211.223-.386.48-.517.76a2.763 2.763 0 0 0-.209 1.13v.33h2v-.34a.874.874 0 0 1 .064-.33c.04-.104.1-.2.176-.28.167-.188.316-.353.524-.49l.722-.51c.268-.186.514-.404.732-.65.265-.29.472-.631.607-1.004a3.07 3.07 0 0 0 .183-1.166 3.88 3.88 0 0 0-.225-1.33zM13.5 16.5a1.5 1.5 0 1 1-3 0 1.5 1.5 0 0 1 3 0z"/><path fill-rule="evenodd" d="M4.929 4.929A10 10 0 1 1 19.07 19.07 10 10 0 0 1 4.93 4.93zM12 4a8 8 0 1 0 0 16 8 8 0 0 0 0-16z" clip-rule="evenodd"/></svg>