<svg width="26" height="26" viewBox="0 0 26 26" fill="none" xmlns="http://www.w3.org/2000/svg">
<path d="M4.33366 21.6667C3.73783 21.6667 3.22758 21.4543 2.80291 21.0297C2.37824 20.605 2.16627 20.0951 2.16699 19.5V6.5C2.16699 5.90417 2.37933 5.39392 2.80399 4.96925C3.22866 4.54458 3.73855 4.33261 4.33366 4.33333H21.667C22.2628 4.33333 22.7731 4.54567 23.1977 4.97033C23.6224 5.395 23.8344 5.90489 23.8337 6.5V19.5C23.8337 20.0958 23.6213 20.6061 23.1967 21.0308C22.772 21.4554 22.2621 21.6674 21.667 21.6667H4.33366ZM13.0003 14.0833L4.33366 8.66667V19.5H21.667V8.66667L13.0003 14.0833ZM13.0003 11.9167L21.667 6.5H4.33366L13.0003 11.9167ZM4.33366 8.66667V6.5V19.5V8.66667Z" fill="#1BACED"/>
</svg>
