<svg width="14" height="14" viewBox="0 0 14 14" fill="none" xmlns="http://www.w3.org/2000/svg">
<path d="M12.8173 11.4844C12.0675 10.1684 10.8967 9.14307 9.49339 8.57335C10.1913 8.04996 10.7067 7.32026 10.9668 6.48761C11.2269 5.65497 11.2185 4.76159 10.9426 3.93403C10.6668 3.10647 10.1375 2.38668 9.42984 1.87663C8.72218 1.36657 7.87197 1.0921 6.99964 1.0921C6.12732 1.0921 5.27711 1.36657 4.56944 1.87663C3.86177 2.38668 3.33253 3.10647 3.05668 3.93403C2.78082 4.76159 2.77235 5.65497 3.03245 6.48761C3.29254 7.32026 3.80803 8.04996 4.50589 8.57335C3.10257 9.14307 1.93178 10.1684 1.18199 11.4844C1.13553 11.5591 1.10456 11.6424 1.09093 11.7293C1.0773 11.8162 1.08129 11.9049 1.10265 11.9903C1.12401 12.0756 1.16231 12.1558 1.21527 12.226C1.26824 12.2963 1.33479 12.3552 1.41096 12.3992C1.48713 12.4432 1.57138 12.4714 1.65869 12.4822C1.74599 12.493 1.83458 12.4862 1.91918 12.462C2.00379 12.4379 2.08268 12.397 2.15116 12.3418C2.21965 12.2866 2.27633 12.2182 2.31785 12.1406C3.30878 10.4278 5.05878 9.40624 6.99964 9.40624C8.9405 9.40624 10.6905 10.4284 11.6814 12.1406C11.7714 12.2853 11.9141 12.3893 12.0794 12.4307C12.2446 12.472 12.4195 12.4475 12.567 12.3623C12.7145 12.277 12.8231 12.1378 12.8698 11.974C12.9165 11.8101 12.8977 11.6346 12.8173 11.4844ZM4.15589 5.24999C4.15589 4.68755 4.32268 4.13774 4.63515 3.67009C4.94763 3.20244 5.39176 2.83795 5.91139 2.62271C6.43101 2.40747 7.0028 2.35116 7.55443 2.46088C8.10606 2.57061 8.61277 2.84145 9.01048 3.23916C9.40818 3.63686 9.67902 4.14357 9.78875 4.6952C9.89848 5.24684 9.84216 5.81862 9.62692 6.33825C9.41169 6.85788 9.0472 7.30201 8.57955 7.61448C8.11189 7.92696 7.56208 8.09374 6.99964 8.09374C6.2457 8.09287 5.52289 7.79299 4.98977 7.25987C4.45665 6.72675 4.15676 6.00394 4.15589 5.24999Z" fill="white"/>
</svg>
