<svg width="13" height="13" viewBox="0 0 13 13" fill="none" xmlns="http://www.w3.org/2000/svg">
<path d="M6.49967 11.9167C3.50805 11.9167 1.08301 9.49163 1.08301 6.5C1.08301 3.50838 3.50805 1.08334 6.49967 1.08334C9.4913 1.08334 11.9163 3.50838 11.9163 6.5C11.9163 9.49163 9.4913 11.9167 6.49967 11.9167ZM6.49967 10.8333C7.64895 10.8333 8.75115 10.3768 9.5638 9.56413C10.3765 8.75147 10.833 7.64927 10.833 6.5C10.833 5.35073 10.3765 4.24853 9.5638 3.43587C8.75115 2.62322 7.64895 2.16667 6.49967 2.16667C5.3504 2.16667 4.2482 2.62322 3.43554 3.43587C2.62289 4.24853 2.16634 5.35073 2.16634 6.5C2.16634 7.64927 2.62289 8.75147 3.43554 9.56413C4.2482 10.3768 5.3504 10.8333 6.49967 10.8333ZM7.04134 6.5H9.20801V7.58334H5.95801V3.79167H7.04134V6.5Z" fill="black"/>
</svg>
