<svg width="15" height="16" viewBox="0 0 15 16" fill="none" xmlns="http://www.w3.org/2000/svg">
<path d="M11.2694 10.8856L13.9462 13.5619L13.0619 14.4462L10.3856 11.7694C9.38984 12.5676 8.15125 13.0018 6.875 13C3.77 13 1.25 10.48 1.25 7.375C1.25 4.27 3.77 1.75 6.875 1.75C9.98 1.75 12.5 4.27 12.5 7.375C12.5018 8.65125 12.0676 9.88984 11.2694 10.8856ZM10.0156 10.4219C10.8088 9.60618 11.2518 8.51277 11.25 7.375C11.25 4.95812 9.29187 3 6.875 3C4.45812 3 2.5 4.95812 2.5 7.375C2.5 9.79187 4.45812 11.75 6.875 11.75C8.01277 11.7518 9.10618 11.3088 9.92188 10.5156L10.0156 10.4219Z" fill="#717577"/>
</svg>
