<svg width="13" height="13" viewBox="0 0 13 13" fill="none" xmlns="http://www.w3.org/2000/svg">
<path d="M6.50033 1.08334C4.11699 1.08334 2.16699 3.03334 2.16699 5.41667C2.16699 8.34167 5.95866 11.6458 6.12116 11.8083C6.22949 11.8625 6.39199 11.9167 6.50033 11.9167C6.60866 11.9167 6.77116 11.8625 6.87949 11.8083C7.04199 11.6458 10.8337 8.34167 10.8337 5.41667C10.8337 3.03334 8.88366 1.08334 6.50033 1.08334ZM6.50033 10.6708C5.36283 9.5875 3.25033 7.25834 3.25033 5.41667C3.25033 3.62917 4.71283 2.16667 6.50033 2.16667C8.28783 2.16667 9.75033 3.62917 9.75033 5.41667C9.75033 7.20417 7.63783 9.5875 6.50033 10.6708ZM6.50033 3.25C5.30866 3.25 4.33366 4.225 4.33366 5.41667C4.33366 6.60834 5.30866 7.58334 6.50033 7.58334C7.69199 7.58334 8.66699 6.60834 8.66699 5.41667C8.66699 4.225 7.69199 3.25 6.50033 3.25ZM6.50033 6.5C5.90449 6.5 5.41699 6.0125 5.41699 5.41667C5.41699 4.82084 5.90449 4.33334 6.50033 4.33334C7.09616 4.33334 7.58366 4.82084 7.58366 5.41667C7.58366 6.0125 7.09616 6.5 6.50033 6.5Z" fill="black"/>
</svg>
