<svg width="24" height="25" viewBox="0 0 24 25" fill="none" xmlns="http://www.w3.org/2000/svg">
<path fill-rule="evenodd" clip-rule="evenodd" d="M5.73303 2.54301C6.95003 1.33301 8.95403 1.54801 9.97303 2.91001L11.235 4.59401C12.065 5.70201 11.991 7.25001 11.006 8.22901L10.768 8.46701C10.7412 8.56693 10.7384 8.67181 10.76 8.77301C10.823 9.18101 11.164 10.045 12.592 11.465C14.02 12.885 14.89 13.225 15.304 13.289C15.4082 13.3112 15.5162 13.3081 15.619 13.28L16.027 12.874C16.903 12.004 18.247 11.841 19.331 12.43L21.241 13.47C22.878 14.358 23.291 16.582 21.951 17.915L20.53 19.327C20.082 19.772 19.48 20.143 18.746 20.212C16.936 20.381 12.719 20.165 8.28603 15.758C4.14903 11.644 3.35503 8.05601 3.25403 6.28801C3.20403 5.39401 3.62603 4.63801 4.16403 4.10401L5.73303 2.54301ZM8.77303 3.80901C8.26603 3.13201 7.32203 3.07801 6.79003 3.60701L5.22003 5.16701C4.89003 5.49501 4.73203 5.85701 4.75203 6.20301C4.83203 7.60801 5.47203 10.845 9.34403 14.695C13.406 18.733 17.157 18.854 18.607 18.718C18.903 18.691 19.197 18.537 19.472 18.264L20.892 16.851C21.47 16.277 21.343 15.231 20.525 14.787L18.615 13.748C18.087 13.462 17.469 13.556 17.085 13.938L16.63 14.391L16.1 13.859C16.63 14.391 16.629 14.392 16.628 14.392L16.627 14.394L16.624 14.397L16.617 14.403L16.602 14.417C16.5595 14.4558 16.514 14.4913 16.466 14.523C16.386 14.576 16.28 14.635 16.147 14.684C15.877 14.785 15.519 14.839 15.077 14.771C14.21 14.638 13.061 14.047 11.534 12.529C10.008 11.011 9.41203 9.86901 9.27803 9.00301C9.20903 8.56101 9.26403 8.20301 9.36603 7.93301C9.42259 7.78127 9.50293 7.6395 9.60403 7.51301L9.63603 7.47801L9.65003 7.46301L9.65603 7.45701L9.65903 7.45401L9.66103 7.45201L9.94903 7.16601C10.377 6.73901 10.437 6.03201 10.034 5.49301L8.77303 3.80901Z" fill="#337AB7"/>
</svg>
