<?xml version="1.0" encoding="UTF-8"?>
<svg width="45px" height="45px" viewBox="0 0 45 45" version="1.1" xmlns="http://www.w3.org/2000/svg" xmlns:xlink="http://www.w3.org/1999/xlink">
    <!-- Generator: Sketch 47.1 (45422) - http://www.bohemiancoding.com/sketch -->
    <title>icon-ei90</title>
    <desc>Created with Sketch.</desc>
    <defs></defs>
    <g id="site" stroke="none" stroke-width="1" fill="none" fill-rule="evenodd">
        <g id="Противопожарная-дверь.рф-Filter" transform="translate(-531.000000, -438.000000)">
            <g id="FILTER" transform="translate(194.000000, 328.000000)">
                <g id="ognestoykost" transform="translate(16.000000, 77.000000)">
                    <g id="icon-ei90" transform="translate(322.000000, 34.000000)">
                        <path d="M17.9492434,1.03706719 C19.9102721,0.016230716 23.0932285,0.0180529884 25.0507566,1.03706719 L39.3792871,8.49595168 C41.3403158,9.51678815 42.9300437,12.1324535 42.9300437,14.3460334 L42.9300437,28.6539666 C42.9300437,30.8640411 41.3368153,33.4850341 39.3792871,34.5040483 L25.0507566,41.9629328 C23.0897279,42.9837693 19.9067715,42.981947 17.9492434,41.9629328 L3.62071286,34.5040483 C1.65968415,33.4832118 0.0699562818,30.8675465 0.0699562818,28.6539666 L0.0699562818,14.3460334 C0.0699562818,12.1359589 1.66318474,9.51496588 3.62071286,8.49595168 L17.9492434,1.03706719 Z" id="Polygon" stroke="#FFFFFF" stroke-width="2" fill="#D64242"></path>
                        <path d="M12.1050404,22.6183391 L8.3875433,22.6183391 L8.3875433,24.955244 L12.7785,24.955244 L12.7785,26.7735849 L6.02370007,26.7735849 L6.02370007,16.968013 L12.7919692,16.968013 L12.7919692,18.7930885 L8.3875433,18.7930885 L8.3875433,20.8606095 L12.1050404,20.8606095 L12.1050404,22.6183391 Z M16.2602862,26.7735849 L13.9031775,26.7735849 L13.9031775,16.968013 L16.2602862,16.968013 L16.2602862,26.7735849 Z M22.2338729,23.4264906 L18.1863806,23.4264906 L18.1863806,21.6687611 L22.2338729,21.6687611 L22.2338729,23.4264906 Z M28.4364359,22.9820073 C27.9470528,23.4220031 27.3993111,23.6419977 26.7931945,23.6419977 C25.9042233,23.6419977 25.1993427,23.3411888 24.6785313,22.7395618 C24.1577199,22.1379349 23.8973181,21.3342811 23.8973181,20.3285764 C23.8973181,19.700011 24.0432329,19.1163518 24.3350669,18.5775814 C24.6269008,18.0388111 25.0365847,17.6122909 25.5641307,17.2980082 C26.0916767,16.9837255 26.6742134,16.8265865 27.3117584,16.8265865 C27.9582828,16.8265865 28.5430644,16.9893376 29.0661207,17.3148447 C29.5891769,17.6403518 29.9966159,18.1005446 30.2884498,18.6954369 C30.5802838,19.2903292 30.7306883,19.9761287 30.7396678,20.752856 L30.7396678,21.6216189 C30.7396678,22.7036494 30.5275301,23.6419937 30.1032485,24.4366801 C29.6789668,25.2313664 29.0739816,25.8419636 28.2882748,26.2684902 C27.502568,26.6950168 26.5866721,26.9082768 25.5405596,26.9082768 L25.3991331,26.9082768 L25.3991331,25.0899359 L25.8301472,25.0832013 C27.3925813,25.0068755 28.2613355,24.3064845 28.4364359,22.9820073 Z M27.4060427,22.0054909 C27.8999156,22.0054909 28.2546007,21.7922308 28.4701089,21.3657042 L28.4701089,20.4228608 C28.4701089,19.7942953 28.3646013,19.3296128 28.1535829,19.0287994 C27.9425645,18.7279859 27.6574694,18.5775814 27.2982892,18.5775814 C26.9795167,18.5775814 26.7123804,18.7481895 26.4968722,19.0894107 C26.2813641,19.430632 26.1736116,19.8436831 26.1736116,20.3285764 C26.1736116,20.8404083 26.2836089,21.2478473 26.5036068,21.5509056 C26.7236047,21.853964 27.0244137,22.0054909 27.4060427,22.0054909 Z M38.7605717,22.7665002 C38.7605717,24.0909774 38.4631301,25.1123809 37.8682378,25.8307415 C37.2733455,26.549102 36.4348966,26.9082768 35.3528661,26.9082768 C34.2618561,26.9082768 33.4177952,26.5468571 32.820658,25.8240069 C32.2235208,25.1011566 31.9249567,24.0819979 31.9249567,22.7665002 L31.9249567,20.9750977 C31.9249567,19.6506205 32.2223984,18.6292169 32.8172907,17.9108564 C33.412183,17.1924959 34.2528767,16.833321 35.3393969,16.833321 C36.4259172,16.833321 37.2677333,17.1947408 37.8648705,17.917591 C38.4620076,18.6404413 38.7605717,19.6618448 38.7605717,20.9818323 L38.7605717,22.7665002 Z M36.4910129,20.68551 C36.4910129,19.9806188 36.3989743,19.4542031 36.2148944,19.1062472 C36.0308145,18.7582914 35.738985,18.584316 35.3393969,18.584316 C34.9487884,18.584316 34.6648158,18.7459447 34.4874705,19.069207 C34.3101253,19.3924692 34.2147194,19.8818449 34.2012502,20.5373489 L34.2012502,23.0426187 C34.2012502,23.7744484 34.2932887,24.3098435 34.4773686,24.6488198 C34.6614485,24.9877962 34.9532781,25.1572818 35.3528661,25.1572818 C35.7389849,25.1572818 36.0240799,24.9922859 36.2081598,24.662289 C36.3922397,24.3322922 36.4865231,23.8148559 36.4910129,23.1099646 L36.4910129,20.68551 Z" id="EI-90" fill="#FFFFFF"></path>
                    </g>
                </g>
            </g>
        </g>
    </g>
</svg>