<svg xmlns="http://www.w3.org/2000/svg" width="421.56" height="675.09" viewBox="0 0 421.56 675.09">
  <defs>
    <style>
      .cls-1 {
        fill: #000;
        fill-rule: evenodd;
      }
    </style>
  </defs>
  <path id="Прямоугольник_1" data-name="Прямоугольник 1" class="cls-1" d="M1581,458c-5.69,11.31-11.39,17.073-19.62,51.55-23.86,100.032,16.43,177.246,54.13,230.189,9.31,13.069,20.14,26.975,33.16,39.944v-2.031c-2.46-13.457,3.15-39.624,5.41-46.714,13.18-41.361,38.72-71.213,76.46-93.43v1.354c-12.57,16.094-14.31,86.7-8.12,113.063,8.21,34.97,20.5,60.958,33.15,92.076,7.76,19.092,11.26,38.087,15.56,62.286,4.08,22.953,6.9,57.267,1.36,81.921-3.41,15.152-7.56,30.972-12.18,41.972-7.15,17.02-25.93,40.47-43.98,54.17-15.51,11.76-30.89,20.28-50.75,28.43-5.03,2.07-14.67,6.62-21.65,6.77h1.35c8.68-4.66,15.11-10.3,18.95-19.63,22.68-55.11-12.45-88.78-25.04-127.284-3.22-9.852-7.69-20.808-6.09-33.851h-0.67c-14.8,17.289-21.83,48.579-12.86,81.245h-1.35c-7.46-8.87-13.94-17.03-16.92-30.468-8.59-38.794,11.76-55.693,8.12-94.107-2.1-22.166-13.84-50.528-39.92-69.057v2.031c5.79,12.3,9.5,37.812,6.09,57.548-5.75,33.3-19.25,51.768-37.89,70.41a129.079,129.079,0,0,1-14.88,12.864c-2.64-25.316-10.89-51.385-32.48-57.547v2.031a132.689,132.689,0,0,1-6.09,67.7c-6.93,19.493-13.43,37.373-17.59,59.583-7.75,41.3,26.05,83.56,52.1,91.39v0.68h-2.71q-17.925-5.415-35.86-10.83c-33.31-13.29-66.43-31.9-89.31-58.23-12.97-14.91-24.81-32.14-30.45-53.48-21.81-82.477,17-141.361,39.92-193.63,8.94-20.394,18.64-53.07,14.88-83.951-2.93-24.077-8.13-23.9-11.5-35.206h0.68c13.95,5.791,24.5,10.951,33.83,23.019,27.22,35.2,32.41,83.512,29.09,143.53h1.36a40.019,40.019,0,0,0,10.82-15.572c9.54-23.471,11.52-69.86,6.09-96.138-4.41-21.34-19.14-89.942-10.15-136.759,12.86-66.89,26.18-89.56,63.6-127.958C1552.54,474.433,1566.02,463.605,1581,458Zm61.58,662.23h1.35v0.67C1643.48,1120.68,1643.03,1120.45,1642.58,1120.23Z" transform="translate(-1354.03 -458)"/>
</svg>