<?xml version="1.0" encoding="utf-8"?>
<!-- Generator: Adobe Illustrator 21.1.0, SVG Export Plug-In . SVG Version: 6.00 Build 0)  -->
<svg version="1.1" id="Слой_1" xmlns="http://www.w3.org/2000/svg" xmlns:xlink="http://www.w3.org/1999/xlink" x="0px" y="0px"
	 viewBox="0 0 268 62" style="enable-background:new 0 0 268 62;" xml:space="preserve">
<style type="text/css">
	.st0{fill:#38B1DE;}
	.st1{fill:#FFFFFF;}
	.st2{fill:#00B7F4;}
</style>
<path class="st0" d="M40.5,5L40.5,5h-5.4l0,0l0,0c-0.2,0-0.4,0.1-0.6,0.2l0,0l-9.6,9.6c-0.3,0.3-0.7,0.3-1,0l-2.7-2.7
	c-0.1-0.1-0.3-0.2-0.5-0.2c-0.4,0-0.7,0.3-0.7,0.7l0,0l-2.2,15.5c-0.1,0.5,0.1,0.7,0.4,1c2.2,2.1,3.8,3.8,5.9,5.9
	c0.3,0.3,0.7,0.3,1,0c3.1-3.1,5.7-5.7,8.8-8.8l0,0c0.6-0.5,0.7,0.1,0.7,0.1l3.2,25.3l0,0c0,0.4,0.4,0.7,0.7,0.7h0.1l0,0h0.1l3.9-0.8
	l0.4,2.8c0.1,0.4,0.3,0.8,0.8,0.8h5.6c0.4,0,0.8-0.4,0.8-0.8L49.9,52c0-0.1,0-0.1,0-0.2l-1.1-8C48.7,43.4,48.5,43,48,43h-1.7
	L41.2,5.6C41.2,5.3,40.9,5,40.5,5"/>
<path class="st1" d="M9.9,5h5.4c0.2,0,0.4,0.1,0.6,0.2l2.3,2.6c0.3,0.3,0.3,0.3,0.3,0.6l-2.8,19.8c0,0.3,0,0.7,0.3,1l8.1,8.2
	c0.3,0.3,0.7,0.3,1,0l6.6-6.7C32.1,30.2,33,30,33,31l1.9,15c0.1,0.5-0.1,0.7-0.4,1c-2.2,2.1-7.5,5.6-9.6,7.7c-0.3,0.3-0.7,0.3-1,0
	c-3.1-3.1-6.7-5.5-9.8-8.6c-0.3-0.3-0.7-0.5-0.8,0.1l-0.7,5.6c0,0.1-0.3,0.8-0.9,0.6l-4-0.8l-0.4,2.5c-0.1,0.4-0.3,0.8-0.8,0.8H1
	c-0.4,0-0.8-0.3-0.8-0.8l1.4-10.4c0.1-0.4,0.3-0.8,0.8-0.8h1.8L9.1,5.6C9.2,5.3,9.5,5,9.9,5"/>
<g>
	<path class="st1" d="M81,16.1c0,0.9-0.6,1.4-1.2,1.6c0.8,0.2,1.4,0.8,1.4,1.7c0,1.2-1,2-2.6,2c-1.4,0-2.2-0.4-3-1.1l0.7-0.8
		c0.6,0.6,1.4,0.9,2.3,0.9c0.7,0,1.4-0.4,1.4-1c0-0.7-0.7-1-1.6-1h-0.8v-1h0.8c0.9,0,1.4-0.4,1.4-1s-0.5-1-1.3-1s-1.4,0.3-2,0.8
		l-0.7-0.8c0.7-0.6,1.5-1.1,2.7-1.1C80,14.2,81,15,81,16.1z"/>
	<path class="st1" d="M84.9,14.2H86l3.1,7h-1.3l-0.7-1.7h-3.3l-0.7,1.7h-1.3L84.9,14.2z M86.7,18.5l-1.2-2.8l-1.2,2.8H86.7z"/>
	<path class="st1" d="M90.3,14.3h3.1c0.8,0,1.4,0.2,1.8,0.6c0.3,0.3,0.5,0.7,0.5,1.2c0,0.8-0.5,1.3-1,1.6c0.8,0.3,1.4,0.7,1.4,1.7
		c0,1.2-1,1.9-2.6,1.9h-3.2C90.3,21.3,90.3,14.3,90.3,14.3z M93.2,17.2c0.8,0,1.3-0.3,1.3-1c0-0.5-0.4-0.9-1.2-0.9h-1.8v1.9H93.2z
		 M93.6,20.2c0.8,0,1.3-0.3,1.3-1c0-0.6-0.5-0.9-1.4-0.9h-1.9v1.9H93.6z"/>
	<path class="st1" d="M97.2,17.8c0-2,1.5-3.6,3.7-3.6c2.1,0,3.6,1.6,3.6,3.6s-1.5,3.6-3.7,3.6S97.2,19.8,97.2,17.8z M103.2,17.8
		c0-1.4-1-2.5-2.4-2.5s-2.4,1.1-2.4,2.5s1,2.5,2.4,2.5C102.3,20.3,103.2,19.2,103.2,17.8z"/>
	<path class="st1" d="M105,20.2h0.7c0.6-1.1,0.9-2.6,0.9-4.9v-1h4.9v5.9h0.9l-0.2,2.6h-1v-1.5h-4.9l-0.1,1.5H105V20.2z M110.2,20.2
		v-4.8h-2.5v0.8c0,1.6-0.3,3-0.8,4H110.2z"/>
	<path class="st1" d="M116.4,14.3h1.3l2.1,3.3l2.1-3.3h1.3v7H122v-5l-2.2,3.3l0,0l-2.2-3.3v5h-1.2C116.4,21.3,116.4,14.3,116.4,14.3
		z"/>
	<path class="st1" d="M125.1,14.3h5.2v1.1h-4v1.8h3.5v1.1h-3.5v1.9h4v1.1h-5.2C125.1,21.3,125.1,14.3,125.1,14.3z"/>
	<path class="st1" d="M133.5,15.4h-2.2v-1.1h5.7v1.1h-2.2v5.8h-1.2v-5.8H133.5z"/>
	<path class="st1" d="M139.8,14.2h1.1l3.1,7h-1.3l-0.7-1.7h-3.3l-0.7,1.7h-1.3L139.8,14.2z M141.6,18.5l-1.2-2.8l-1.2,2.8H141.6z"/>
	<path class="st1" d="M144.4,21.3l0.1-1c0.1,0,0.2,0.1,0.4,0.1c0.7,0,1.4-0.4,1.4-4.6v-1.4h4.8v7h-1.2v-5.9h-2.4V16
		c0,4.4-0.8,5.3-2.2,5.3C145,21.4,144.6,21.3,144.4,21.3z"/>
	<path class="st1" d="M152,21.3l0.1-1c0.1,0,0.2,0.1,0.4,0.1c0.7,0,1.4-0.4,1.4-4.6v-1.4h4.8v7h-1.2v-5.9H155V16
		c0,4.4-0.8,5.3-2.2,5.3C152.6,21.4,152.2,21.3,152,21.3z"/>
	<path class="st1" d="M160.5,14.3h1.2v5.1l3.5-5.1h1.1v7h-1.2v-5.1l-3.5,5.1h-1.2L160.5,14.3L160.5,14.3z"/>
	<path class="st1" d="M172.3,18.5c-0.5,0.3-1.3,0.6-2,0.6c-1.4,0-2.3-0.7-2.3-2.2v-2.6h1.2v2.3c0,0.9,0.4,1.4,1.3,1.4
		c0.6,0,1.3-0.3,1.8-0.5v-3.1h1.2v7h-1.2V18.5z"/>
	<path class="st1" d="M175.3,14.3h5.2v1.1h-4v1.8h3.5v1.1h-3.5v1.9h4v1.1h-5.2V14.3z"/>
	<path class="st1" d="M181.7,17.8c0-2,1.5-3.6,3.6-3.6c1.3,0,2.1,0.4,2.7,1.1l-0.8,0.9c-0.6-0.5-1.2-0.9-2-0.9
		c-1.3,0-2.3,1.1-2.3,2.5s1,2.5,2.3,2.5c0.9,0,1.4-0.3,2-0.9l0.8,0.8c-0.7,0.8-1.5,1.2-2.8,1.2C183.2,21.4,181.7,19.8,181.7,17.8z"
		/>
	<path class="st1" d="M189.4,14.3h1.2v3.5l3.3-3.5h1.5l-2.9,3l3,4H194l-2.4-3.1l-1.1,1.1v2h-1.2L189.4,14.3L189.4,14.3z"/>
	<path class="st1" d="M196.6,14.3h1.2v5.1l3.5-5.1h1.1v7h-1.2v-5.1l-3.5,5.1h-1.2L196.6,14.3L196.6,14.3z"/>
	<path class="st1" d="M206.3,17.7l-2.4-3.4h1.4l1.7,2.5l1.7-2.5h1.4l-2.4,3.4l2.5,3.6h-1.4l-1.8-2.6l-1.8,2.6h-1.4L206.3,17.7z"/>
	<path class="st1" d="M213.8,20.2h0.7c0.6-1.1,0.9-2.6,0.9-4.9v-1h4.9v5.9h0.9l-0.2,2.6h-1v-1.5h-5l-0.1,1.5h-1.1L213.8,20.2
		L213.8,20.2z M219,20.2v-4.8h-2.5v0.8c0,1.6-0.3,3-0.8,4H219z"/>
	<path class="st1" d="M222.2,14.3h3.1c0.8,0,1.4,0.2,1.8,0.6c0.3,0.3,0.5,0.7,0.5,1.2c0,0.8-0.5,1.3-1,1.6c0.8,0.3,1.4,0.7,1.4,1.7
		c0,1.2-1,1.9-2.6,1.9h-3.2V14.3z M225.1,17.2c0.8,0,1.3-0.3,1.3-1c0-0.5-0.4-0.9-1.2-0.9h-1.8v1.9H225.1z M225.4,20.2
		c0.8,0,1.3-0.3,1.3-1c0-0.6-0.5-0.9-1.4-0.9h-1.9v1.9H225.4z"/>
	<path class="st1" d="M229.4,14.3h5.2v1.1h-4v1.8h3.5v1.1h-3.5v1.9h4v1.1h-5.2V14.3z"/>
	<path class="st1" d="M236.1,14.3h2.8c1.6,0,2.7,0.9,2.7,2.4c0,1.6-1.3,2.4-2.8,2.4h-1.4v2.2h-1.2v-7H236.1z M238.7,17.9
		c0.9,0,1.5-0.5,1.5-1.3c0-0.8-0.6-1.2-1.5-1.2h-1.4v2.5C237.3,17.9,238.7,17.9,238.7,17.9z"/>
	<path class="st1" d="M242.7,14.3h5.2v1.1h-4v1.8h3.5v1.1H244v1.9h4v1.1h-5.2v-7H242.7z"/>
	<path class="st1" d="M249.4,14.3h1.2v5.1l3.5-5.1h1.1v7H254v-5.1l-3.5,5.1h-1.2L249.4,14.3L249.4,14.3z M250.8,12.4l0.7-0.1
		c0.1,0.4,0.4,0.7,0.8,0.7c0.4,0,0.7-0.3,0.8-0.7l0.7,0.1c-0.1,0.9-0.7,1.4-1.6,1.4S251,13.2,250.8,12.4z"/>
</g>
<g>
	<path class="st2" d="M65.7,45.3h1.6c1.3-2.3,2-5.2,2-8.7v-3.7H80v12.4h1.8v6.3h-3.4v-3.1h-9.1v3.1h-3.5v-6.3H65.7z M71.3,45.3h4.9
		v-9.1H73v0.7c0,1.4-0.1,2.9-0.4,4.5C72.3,42.9,71.9,44.2,71.3,45.3z"/>
	<path class="st2" d="M84.1,48.6V32.9h5.8c1.6,0,2.9,0.4,3.9,1.1c1,0.7,1.5,1.7,1.5,3c0,0.7-0.2,1.3-0.5,1.9
		c-0.3,0.6-0.8,1.1-1.3,1.4l0,0c0.8,0.2,1.5,0.7,1.9,1.4s0.6,1.4,0.6,2.2c0,1.6-0.6,2.8-1.7,3.5c-1.1,0.8-2.6,1.1-4.3,1.1L84.1,48.6
		L84.1,48.6z M88,38.9h2c0.5,0,0.8-0.1,1-0.4c0.2-0.3,0.4-0.6,0.4-1s-0.1-0.7-0.4-1c-0.2-0.2-0.6-0.4-1.1-0.4H88V38.9z M88,45.3h2.3
		c0.5,0,0.9-0.2,1.2-0.5c0.3-0.3,0.4-0.7,0.4-1.2s-0.1-0.9-0.4-1.2s-0.7-0.5-1.2-0.5H88V45.3z"/>
	<path class="st2" d="M98.3,48.6V32.9h9.8v3.3h-6V39h4.8v3.3h-4.8v3h6.3v3.3H98.3z"/>
	<path class="st2" d="M111,48.6V32.9h6.5c1.5,0,2.8,0.5,3.7,1.5c0.9,1,1.4,2.3,1.4,3.9c0,1.6-0.5,2.9-1.4,3.9s-2.2,1.5-3.7,1.5h-2.7
		v4.9C114.8,48.6,111,48.6,111,48.6z M114.8,40.4h1.9c0.6,0,1.1-0.2,1.5-0.6s0.5-0.9,0.5-1.6c0-0.6-0.2-1.2-0.5-1.5
		c-0.3-0.4-0.8-0.6-1.4-0.6h-2V40.4z"/>
	<path class="st2" d="M124.7,48.6V32.9h3.8v7.3l-0.2,2.7l0,0c0.5-1.1,0.9-2,1.3-2.7l4.3-7.3h3.9v15.7H134v-7.3l0.2-2.7l0,0
		c-0.5,1.1-0.9,2-1.3,2.7l-4.4,7.3C128.5,48.6,124.7,48.6,124.7,48.6z"/>
	<path class="st2" d="M146.2,48.6l1.3-15.7h4.2l2.3,6.6l0.8,2.6l0,0c0.3-1.1,0.6-1.9,0.8-2.6l2.3-6.6h4.2l1.3,15.7h-3.8l-0.5-7.1
		c0-0.4,0-0.7,0-1.2c0-0.4,0-0.8,0-1.1v-0.4l0,0c-0.4,1.1-0.6,2-0.9,2.6l-1.6,4.5h-3.3l-1.6-4.5l-0.9-2.6l0,0c0.1,1,0.1,1.8,0,2.6
		l-0.5,7.1h-4.1V48.6z"/>
	<path class="st2" d="M166,48.6V32.9h9.8v3.3h-6V39h4.8v3.3h-4.8v3h6.3v3.3H166z"/>
	<path class="st2" d="M182,48.6V36.2h-4.8v-3.3h13.4v3.3h-4.8v12.4H182z"/>
	<path class="st2" d="M189.6,48.6l5.3-15.7h4l5.3,15.7h-4l-1-3.3h-4.9l-0.9,3.3H189.6z M195.4,42.2h3.1l-0.9-3.1l-0.6-2.7l0,0
		c-0.2,1.1-0.4,2-0.6,2.7L195.4,42.2z"/>
	<path class="st2" d="M204.6,45.3c0.7-0.1,1.2-0.3,1.7-0.7c0.4-0.4,0.8-1.1,1.1-2.2c0.3-1.1,0.4-2.5,0.4-4.3v-5.2h10.5v15.7h-3.8
		V36.2h-3.1v1.9c0,3.8-0.6,6.5-1.7,8.2c-1.1,1.7-2.8,2.5-5.1,2.5L204.6,45.3L204.6,45.3z"/>
	<path class="st2" d="M220.3,45.3c0.7-0.1,1.2-0.3,1.7-0.7c0.4-0.4,0.8-1.1,1.1-2.2c0.3-1.1,0.4-2.5,0.4-4.3v-5.2H234v15.7h-3.8
		V36.2h-3.1v1.9c0,3.8-0.6,6.5-1.7,8.2c-1.1,1.7-2.8,2.5-5.1,2.5L220.3,45.3L220.3,45.3z"/>
	<path class="st2" d="M248.1,48.6l1.3-15.7h4.2l2.3,6.6l0.8,2.6l0,0c0.3-1.1,0.6-1.9,0.8-2.6l2.3-6.6h4.2l1.3,15.7h-3.8l-0.5-7.1
		c0-0.4,0-0.7,0-1.2c0-0.4,0-0.8,0-1.1v-0.4l0,0c-0.4,1.1-0.6,2-0.9,2.6l-1.6,4.5H255l-1.6-4.5l-0.9-2.6l0,0c0.1,1,0.1,1.8,0,2.6
		l-0.5,7.1h-3.9V48.6z"/>
	<g>
		<path class="st2" d="M237.3,39.6h7v3.5h-7V39.6z"/>
	</g>
</g>
</svg>
