<?xml version="1.0" encoding="UTF-8"?>
<svg width="174" height="40" viewBox="0 0 174 40" fill="none" xmlns="http://www.w3.org/2000/svg"><path d="M174 0H0V40H174V0Z" fill="white"></path><path d="M13.0474 17.3906V9.29618H15.4479V7.65858H8.71973V9.29618H11.0802V17.3906H13.0474ZM19.7355 17.5243C20.8291 17.5243 21.6837 17.1633 22.2994 16.4415C22.9151 15.7196 23.2229 14.7058 23.2229 13.4002V11.7359C23.214 10.4035 22.8984 9.36859 22.2761 8.63112C21.6537 7.89364 20.8024 7.5249 19.7222 7.5249C18.6241 7.5249 17.7662 7.90032 17.1483 8.65117C16.5303 9.40201 16.2214 10.4458 16.2214 11.7827V13.447C16.2303 14.7348 16.5459 15.7363 17.1683 16.4515C17.7906 17.1667 18.6464 17.5243 19.7355 17.5243ZM19.7355 15.8867C19.2065 15.8867 18.8153 15.685 18.5619 15.2818C18.3085 14.8785 18.1818 14.2513 18.1818 13.4002V11.669C18.1907 10.8268 18.3196 10.1996 18.5686 9.78746C18.8175 9.37528 19.202 9.16918 19.7222 9.16918C20.2467 9.16918 20.6335 9.38308 20.8824 9.81086C21.1314 10.2386 21.2558 10.8914 21.2558 11.7693V13.4604C21.2514 14.2892 21.1247 14.9008 20.8758 15.2951C20.6268 15.6895 20.2467 15.8867 19.7355 15.8867ZM27.844 17.3906C28.8264 17.3906 29.5766 17.15 30.0945 16.6687C30.6124 16.1875 30.8713 15.4745 30.8713 14.5298C30.8713 13.9773 30.7535 13.5127 30.5179 13.1362C30.2823 12.7596 29.9466 12.509 29.511 12.3842C29.8889 12.2194 30.1867 11.9587 30.4045 11.6022C30.6224 11.2457 30.7313 10.8202 30.7313 10.3255C30.7313 9.45214 30.4679 8.78931 29.9411 8.33702C29.4143 7.88473 28.6441 7.65858 27.6306 7.65858H24.6299V17.3906H27.844ZM27.6106 11.7292H26.5903V9.29618H27.6306C28.0307 9.29618 28.3196 9.39199 28.4974 9.5836C28.6753 9.77521 28.7642 10.0916 28.7642 10.5327C28.7642 11.3304 28.3796 11.7292 27.6106 11.7292ZM27.844 15.7597H26.5903V13.1596H27.9707C28.6019 13.1819 28.9175 13.6297 28.9175 14.5031C28.9175 14.9041 28.8264 15.2138 28.6441 15.4322C28.4619 15.6505 28.1951 15.7597 27.844 15.7597ZM33.7319 17.3906L34.252 15.3987H36.926L37.4461 17.3906H39.5399L36.4859 7.65858H34.6921L31.6581 17.3906H33.7319ZM36.4925 13.7611H34.6788L35.5857 10.2921L36.4925 13.7611ZM42.4072 17.3906V13.9684H43.7141C44.7144 13.9684 45.4968 13.6921 46.0613 13.1395C46.6259 12.587 46.9082 11.8339 46.9082 10.8803C46.9082 9.92671 46.6226 9.15136 46.0513 8.55425C45.4801 7.95714 44.7144 7.65858 43.7542 7.65858H40.4468V17.3906H42.4072ZM43.7542 12.3308H42.4072V9.29618H43.7742C44.1253 9.30064 44.4054 9.44657 44.6143 9.73399C44.8233 10.0214 44.9277 10.408 44.9277 10.8937C44.9277 11.3616 44.8255 11.718 44.621 11.9631C44.4165 12.2082 44.1276 12.3308 43.7542 12.3308ZM12.3805 32.6392C13.4252 32.6392 14.2343 32.354 14.8077 31.7836C15.3812 31.2133 15.6924 30.3733 15.7413 29.2637H13.7808C13.7542 29.9232 13.643 30.3789 13.4474 30.6306C13.2518 30.8824 12.8962 31.0083 12.3805 31.0083C11.856 31.0083 11.4859 30.8278 11.2703 30.4669C11.0547 30.1059 10.9469 29.442 10.9469 28.475V26.6369C10.9602 25.7947 11.0758 25.1898 11.2936 24.8222C11.5115 24.4546 11.8826 24.2707 12.4072 24.2707C12.9229 24.2707 13.2774 24.4011 13.4708 24.6618C13.6642 24.9224 13.7697 25.3959 13.7875 26.0821H15.7546C15.679 24.9726 15.3668 24.1215 14.8177 23.5288C14.2687 22.9362 13.4652 22.6398 12.4072 22.6398C11.3314 22.6398 10.4912 23.0019 9.88665 23.726C9.28207 24.4501 8.97978 25.4806 8.97978 26.8174V28.455C8.97978 29.7962 9.27207 30.8289 9.85664 31.553C10.4412 32.2772 11.2825 32.6392 12.3805 32.6392ZM22.5228 32.5055V30.8746H18.9086V28.2946H21.9627V26.7104H18.9086V24.4111H22.5094V22.7735H16.9482V32.5055H22.5228ZM25.6101 32.5055V29.0833H26.9171C27.9173 29.0833 28.6997 28.807 29.2643 28.2545C29.8288 27.7019 30.1111 26.9488 30.1111 25.9952C30.1111 25.0416 29.8255 24.2663 29.2543 23.6692C28.683 23.0721 27.9173 22.7735 26.9571 22.7735H23.6497V32.5055H25.6101ZM26.9571 27.4457H25.6101V24.4111H26.9771C27.3283 24.4156 27.6084 24.5615 27.8173 24.8489C28.0262 25.1363 28.1307 25.5229 28.1307 26.0086C28.1307 26.4765 28.0284 26.833 27.824 27.0781C27.6195 27.3231 27.3305 27.4457 26.9571 27.4457ZM35.3056 32.5055V24.4111H37.7061V22.7735H30.978V24.4111H33.3385V32.5055H35.3056ZM40.7268 32.5055L43.5874 26.0621V32.5055H45.5479V22.7735H43.5874L40.7268 29.2236V22.7735H38.7597V32.5055H40.7268ZM52.236 32.9066V31.6633C53.2763 31.6633 54.112 31.2912 54.7432 30.5471C55.3745 29.8029 55.6901 28.8516 55.6901 27.693C55.6901 26.5032 55.3734 25.5307 54.7399 24.7754C54.1064 24.0201 53.2718 23.6424 52.236 23.6424V22.3725H50.3556V23.6424C49.3065 23.6424 48.4641 24.0223 47.8284 24.7821C47.1927 25.5418 46.8748 26.5166 46.8748 27.7064C46.8748 28.4728 47.0193 29.1579 47.3083 29.7617C47.5972 30.3655 48.0006 30.8334 48.5185 31.1654C49.0364 31.4973 49.6488 31.6633 50.3556 31.6633V32.9066H52.236ZM50.3556 29.9789H50.2689C49.7844 29.9789 49.4054 29.774 49.132 29.364C48.8586 28.9541 48.7219 28.4015 48.7219 27.7064C48.7219 26.9622 48.8586 26.3785 49.132 25.9551C49.4054 25.5318 49.7799 25.3201 50.2556 25.3201H50.3556V29.9789ZM52.336 29.9789H52.236V25.3201H52.316C52.7962 25.3201 53.1707 25.5318 53.4396 25.9551C53.7086 26.3785 53.843 26.9577 53.843 27.693C53.843 28.3926 53.7075 28.9485 53.4363 29.3607C53.1651 29.7728 52.7984 29.9789 52.336 29.9789ZM58.8775 32.5055L61.7381 26.0621V32.5055H63.6986V22.7735H61.7381L58.8775 29.2236V22.7735H56.9104V32.5055H58.8775ZM73.0473 34.8516L73.1807 30.8813H71.9871V22.7735H70.02V30.8746H67.146V22.7735H65.1856V32.5055H71.2202V34.8516H73.0473ZM76.268 32.5055L79.1286 26.0621V32.5055H81.0891V22.7735H79.1286L76.268 29.2236V22.7735H74.3009V32.5055H76.268ZM84.6099 32.5055V29.0833H85.9168C86.917 29.0833 87.6994 28.807 88.264 28.2545C88.8286 27.7019 89.1109 26.9488 89.1109 25.9952C89.1109 25.0416 88.8252 24.2663 88.254 23.6692C87.6828 23.0721 86.917 22.7735 85.9568 22.7735H82.6494V32.5055H84.6099ZM85.9568 27.4457H84.6099V24.4111H85.9768C86.328 24.4156 86.6081 24.5615 86.817 24.8489C87.026 25.1363 87.1304 25.5229 87.1304 26.0086C87.1304 26.4765 87.0282 26.833 86.8237 27.0781C86.6192 27.3231 86.3302 27.4457 85.9568 27.4457ZM93.7652 32.6392C94.8588 32.6392 95.7134 32.2783 96.3291 31.5564C96.9448 30.8345 97.2527 29.8208 97.2527 28.5151V26.8508C97.2438 25.5184 96.9281 24.4835 96.3058 23.746C95.6834 23.0086 94.8321 22.6398 93.7519 22.6398C92.6539 22.6398 91.7959 23.0152 91.178 23.7661C90.5601 24.5169 90.2511 25.5608 90.2511 26.8976V28.5619C90.26 29.8497 90.5756 30.8512 91.198 31.5664C91.8203 32.2816 92.6761 32.6392 93.7652 32.6392ZM93.7652 31.0016C93.2362 31.0016 92.845 30.8 92.5916 30.3967C92.3382 29.9934 92.2115 29.3662 92.2115 28.5151V26.784C92.2204 25.9418 92.3494 25.3146 92.5983 24.9024C92.8472 24.4902 93.2318 24.2841 93.7519 24.2841C94.2764 24.2841 94.6632 24.498 94.9121 24.9258C95.1611 25.3536 95.2856 26.0064 95.2856 26.8842V28.5753C95.2811 29.4041 95.1544 30.0157 94.9055 30.4101C94.6565 30.8044 94.2764 31.0016 93.7652 31.0016ZM101.874 32.5055C102.856 32.5055 103.606 32.2649 104.124 31.7836C104.642 31.3024 104.901 30.5894 104.901 29.6447C104.901 29.0922 104.783 28.6276 104.548 28.2511C104.312 27.8746 103.976 27.6239 103.541 27.4991C103.919 27.3343 104.216 27.0736 104.434 26.7171C104.652 26.3606 104.761 25.9351 104.761 25.4405C104.761 24.5671 104.498 23.9042 103.971 23.4519C103.444 22.9997 102.674 22.7735 101.66 22.7735H98.6596V32.5055H101.874ZM101.64 26.8441H100.62V24.4111H101.66C102.06 24.4111 102.349 24.5069 102.527 24.6985C102.705 24.8901 102.794 25.2065 102.794 25.6477C102.794 26.4453 102.409 26.8441 101.64 26.8441ZM101.874 30.8746H100.62V28.2745H102C102.632 28.2968 102.947 28.7446 102.947 29.618C102.947 30.019 102.856 30.3287 102.674 30.5471C102.492 30.7654 102.225 30.8746 101.874 30.8746ZM107.762 32.5055L108.282 30.5137H110.956L111.476 32.5055H113.57L110.516 22.7735H108.722L105.688 32.5055H107.762ZM110.522 28.8761H108.709L109.615 25.407L110.522 28.8761ZM116.437 32.5055V28.3413H119.331V32.5055H121.285V22.7735H119.331V26.7104H116.437V22.7735H114.476V32.5055H116.437Z" fill="#1B4D87"></path><path d="M174 0V40H0V0H174ZM128.15 1.494L1.70867 1.49466V38.5053H128.15V1.494ZM130.571 1.49466L129.574 1.494V38.5053H130.571V1.49466ZM149.993 8.05644C141.82 8.66688 135.599 15.9353 137.662 23.3385C139.725 30.7418 145.755 33.1673 152.751 33.1673C157.228 33.1673 161.31 32.1506 164.998 30.1171L165.457 29.8577V24.3611C163.07 25.8514 160.446 26.6734 157.584 26.8271C153.291 27.0576 150.835 23.8308 150.639 21.0798C150.443 18.3288 152.751 14.2352 156.958 14.2352C159.615 14.2352 162.298 14.9572 165.005 16.4011L165.457 16.6485V11.2239C160.596 8.70532 155.442 7.64949 149.993 8.05644ZM148.332 15.1816C149.823 16.951 149.452 19.6697 148.58 20.665C147.707 21.6602 146.764 22.2381 145.835 22.4903C144.958 22.7285 143.981 22.5207 143.875 22.1794L143.865 22.1179V19.9685L144.001 20.0498C144.328 20.2223 144.718 20.2738 145.173 20.2042C145.952 20.0849 146.559 19.7538 146.919 18.9937C147.278 18.2337 147.092 16.9569 146.133 16.3508C145.173 15.7447 143.832 15.9724 143.281 16.7982C142.955 17.2876 142.799 17.7884 142.813 18.3008L142.826 18.4934V27.6068L142.632 27.6003C142.061 27.5589 141.589 27.3195 141.215 26.8823C140.639 26.2097 140.492 25.7352 140.473 25.2812L140.471 25.1681V17.864L140.497 17.6056C140.649 16.4131 141.233 15.4111 142.249 14.5996C143.882 13.2955 146.841 13.4121 148.332 15.1816ZM169.586 17.3665H161.185V19.8793L163.308 19.8785L163.308 23.6299H167.463L167.462 19.8785L169.586 19.8793V17.3665Z" fill="#1B4D87"></path></svg>