<svg xmlns="http://www.w3.org/2000/svg">
<symbol id="cargo-box" viewBox="0 0 128 128"><g><path d="m86.8 79.115a1.753 1.753 0 0 0 -2.08-1.341l-3.194.689a1.75 1.75 0 1 0 .738 3.421l3.195-.689a1.75 1.75 0 0 0 1.341-2.08z"/><path d="m75.436 79.776-8.855 1.91a1.75 1.75 0 1 0 .738 3.421l8.855-1.91a1.75 1.75 0 0 0 -.738-3.421z"/><path d="m47.744 91.767a11.026 11.026 0 1 0 13.1 8.454 11.037 11.037 0 0 0 -13.1-8.454zm3.911 18.133a7.526 7.526 0 1 1 5.769-8.944 7.536 7.536 0 0 1 -5.769 8.944z"/><path d="m123.4 86.729-1.493-6.924a1.75 1.75 0 0 0 -2.08-1.342l-6.593 1.422-11.791-54.685a1.751 1.751 0 0 0 -2.079-1.341l-35.064 7.56-19.622 4.232-6.408-29.713a1.751 1.751 0 0 0 -1.711-1.381h-30.252a1.749 1.749 0 0 0 -1.75 1.75v7.083a1.75 1.75 0 0 0 1.75 1.75h23.121l14.543 67.436a20.887 20.887 0 1 0 26.8 17.293l51.287-11.061a1.75 1.75 0 0 0 1.342-2.079zm-68.683-4.529-6.217-28.814 17.912-3.863 2.629 12.177a1.747 1.747 0 0 0 1.377 1.349 1.722 1.722 0 0 0 .333.032 1.751 1.751 0 0 0 1.45-.77l4.706-6.96 6.593 4.464a1.75 1.75 0 0 0 2.692-1.815l-2.626-12.177 17.912-3.863 8.339 38.663-43.127 9.3a21 21 0 0 0 -11.973-7.723zm22.341-49.952 2.718 12.6 2.075 9.62-4.432-3a1.751 1.751 0 0 0 -2.431.469l-3.388 5.015-4.851-22.481zm23.682 6.291-17.912 3.861-2.349-10.89 17.912-3.863zm-37.412-3.33 2.349 10.891-17.912 3.865-2.349-10.893zm-32.488-23.569h-22.783v-3.583h27.089l6.479 30.043 9.4 43.592a20.775 20.775 0 0 0 -3.636.143l-14.838-68.814a1.75 1.75 0 0 0 -1.711-1.381zm22.9 107.909a17.4 17.4 0 1 1 13.332-20.671 17.417 17.417 0 0 1 -13.337 20.671zm16.3-23.1a20.739 20.739 0 0 0 -1.369-3.371l50.189-10.824.756 3.5z"/></g></symbol>
<symbol id="cash" viewBox="0 0 55 55"> <path d="M52.4219 22.3438H49.1219C49.5986 21.2605 49.8444 20.0898 49.8438 18.9062C49.8401 16.6282 48.9335 14.4444 47.3227 12.8336C45.7118 11.2227 43.5281 10.3161 41.25 10.3125C40.6728 10.3131 40.0971 10.3706 39.5312 10.4844V2.57812C39.5312 2.3502 39.4407 2.13162 39.2795 1.97046C39.1184 1.80929 38.8998 1.71875 38.6719 1.71875H9.45312C9.2252 1.71875 9.00662 1.80929 8.84546 1.97046C8.68429 2.13162 8.59375 2.3502 8.59375 2.57812V22.3438H4.29688C3.61374 22.3458 2.95917 22.6181 2.47612 23.1011C1.99307 23.5842 1.72079 24.2387 1.71875 24.9219V50.7031C1.72079 51.3863 1.99307 52.0408 2.47612 52.5239C2.95917 53.0069 3.61374 53.2792 4.29688 53.2812H52.4219C52.6498 53.2812 52.8684 53.1907 53.0295 53.0295C53.1907 52.8684 53.2812 52.6498 53.2812 52.4219V23.2031C53.2812 22.9752 53.1907 22.7566 53.0295 22.5955C52.8684 22.4343 52.6498 22.3438 52.4219 22.3438ZM41.25 12.0312C42.6097 12.0312 43.939 12.4345 45.0695 13.1899C46.2001 13.9453 47.0813 15.0191 47.6017 16.2753C48.122 17.5315 48.2582 18.9139 47.9929 20.2475C47.7276 21.5811 47.0728 22.8061 46.1114 23.7676C45.1499 24.7291 43.9249 25.3839 42.5912 25.6491C41.2576 25.9144 39.8753 25.7783 38.6191 25.2579C37.3628 24.7376 36.2891 23.8564 35.5336 22.7258C34.7782 21.5952 34.375 20.266 34.375 18.9062C34.3775 17.0837 35.1026 15.3364 36.3914 14.0477C37.6802 12.7589 39.4274 12.0338 41.25 12.0312ZM33.3781 22.3438H30.9117C30.1166 21.2769 29.0834 20.4106 27.8942 19.8138C26.7051 19.217 25.393 18.9062 24.0625 18.9062C22.732 18.9062 21.4199 19.217 20.2308 19.8138C19.0416 20.4106 18.0084 21.2769 17.2133 22.3438H13.75V11.9711C15.0346 11.7829 16.2243 11.1854 17.1424 10.2674C18.0604 9.34929 18.6579 8.15962 18.8461 6.875H29.2789C29.4671 8.15962 30.0646 9.34929 30.9826 10.2674C31.9007 11.1854 33.0904 11.7829 34.375 11.9711V13.7758C33.4622 14.9864 32.8886 16.4184 32.7134 17.9244C32.5381 19.4304 32.7676 20.9559 33.3781 22.3438ZM28.6 22.3438H19.525C20.7771 21.2364 22.391 20.6251 24.0625 20.6251C25.734 20.6251 27.3479 21.2364 28.6 22.3438ZM10.3125 3.4375H37.8125V11.0344C37.2005 11.3013 36.6234 11.6419 36.0938 12.0484V11.1719C36.0938 10.944 36.0032 10.7254 35.842 10.5642C35.6809 10.403 35.4623 10.3125 35.2344 10.3125C34.0948 10.3125 33.0018 9.85979 32.196 9.05397C31.3902 8.24815 30.9375 7.15523 30.9375 6.01562C30.9375 5.7877 30.847 5.56912 30.6858 5.40796C30.5246 5.24679 30.306 5.15625 30.0781 5.15625H18.0469C17.819 5.15625 17.6004 5.24679 17.4392 5.40796C17.278 5.56912 17.1875 5.7877 17.1875 6.01562C17.1875 6.5799 17.0764 7.13865 16.8604 7.65997C16.6445 8.18129 16.328 8.65497 15.929 9.05397C15.53 9.45298 15.0563 9.76948 14.535 9.98542C14.0136 10.2014 13.4549 10.3125 12.8906 10.3125C12.6627 10.3125 12.4441 10.403 12.283 10.5642C12.1218 10.7254 12.0312 10.944 12.0312 11.1719V22.3438H10.3125V3.4375ZM51.5625 51.5625H4.29688C4.06895 51.5625 3.85037 51.472 3.68921 51.3108C3.52804 51.1496 3.4375 50.931 3.4375 50.7031V24.9219C3.4375 24.694 3.52804 24.4754 3.68921 24.3142C3.85037 24.153 4.06895 24.0625 4.29688 24.0625H34.3922C35.2198 25.1572 36.2947 26.0406 37.5289 26.6406H6.27344C6.04552 26.6406 5.82693 26.7312 5.66577 26.8923C5.5046 27.0535 5.41406 27.2721 5.41406 27.5V48.125C5.41406 48.3529 5.5046 48.5715 5.66577 48.7327C5.82693 48.8938 6.04552 48.9844 6.27344 48.9844H51.5625V51.5625ZM51.5625 41.25H42.1094V34.375H51.5625V41.25ZM51.5625 32.6562H41.25C41.0221 32.6562 40.8035 32.7468 40.6423 32.908C40.4812 33.0691 40.3906 33.2877 40.3906 33.5156V42.1094C40.3906 42.3373 40.4812 42.5559 40.6423 42.717C40.8035 42.8782 41.0221 42.9688 41.25 42.9688H51.5625V47.2656H7.13281V28.3594H51.5625V32.6562ZM51.5625 26.6406H44.9711C46.2053 26.0406 47.2802 25.1572 48.1078 24.0625H51.5625V26.6406Z" fill="#1FB8F0"/> <path d="M45.5469 40.3906C46.0568 40.3906 46.5552 40.2394 46.9792 39.9561C47.4032 39.6728 47.7336 39.2702 47.9288 38.7991C48.1239 38.328 48.1749 37.8096 48.0755 37.3095C47.976 36.8094 47.7304 36.3501 47.3699 35.9895C47.0093 35.6289 46.55 35.3834 46.0498 35.2839C45.5497 35.1844 45.0314 35.2355 44.5603 35.4306C44.0892 35.6258 43.6865 35.9562 43.4032 36.3802C43.12 36.8041 42.9688 37.3026 42.9688 37.8125C42.9688 38.4963 43.2404 39.152 43.7239 39.6355C44.2074 40.119 44.8631 40.3906 45.5469 40.3906ZM45.5469 36.9531C45.7168 36.9531 45.883 37.0035 46.0243 37.098C46.1656 37.1924 46.2758 37.3266 46.3408 37.4836C46.4059 37.6407 46.4229 37.8135 46.3897 37.9802C46.3566 38.1469 46.2747 38.3 46.1545 38.4202C46.0344 38.5404 45.8812 38.6222 45.7145 38.6554C45.5478 38.6885 45.375 38.6715 45.218 38.6065C45.061 38.5414 44.9268 38.4313 44.8323 38.2899C44.7379 38.1486 44.6875 37.9825 44.6875 37.8125C44.6875 37.5846 44.778 37.366 44.9392 37.2048C45.1004 37.0437 45.319 36.9531 45.5469 36.9531Z" fill="#1FB8F0"/> <path d="M40.4423 22.4731H39.0322V15.9677H42.1304C42.8256 15.9677 43.3684 16.1693 43.759 16.5724C44.1562 16.9691 44.3548 17.4665 44.3548 18.0647C44.3548 18.6564 44.1562 19.1538 43.759 19.5569C43.3618 19.96 42.8189 20.1616 42.1304 20.1616H40.4423V22.4731ZM41.9418 18.9425C42.2264 18.9425 42.4581 18.8644 42.6369 18.7084C42.8222 18.5458 42.9149 18.3313 42.9149 18.0647C42.9149 17.7981 42.8222 17.5868 42.6369 17.4307C42.4581 17.2682 42.2264 17.1869 41.9418 17.1869H40.4423V18.9425H41.9418Z" fill="#1FB8F0"/> </symbol>
<symbol id="cashless" viewBox="0 0 55 55"> <path d="M52.4219 22.3438H42.9688V2.57812C42.9688 2.3502 42.8782 2.13162 42.717 1.97046C42.5559 1.80929 42.3373 1.71875 42.1094 1.71875H2.57812C2.3502 1.71875 2.13162 1.80929 1.97046 1.97046C1.80929 2.13162 1.71875 2.3502 1.71875 2.57812V52.4219C1.71875 52.6498 1.80929 52.8684 1.97046 53.0295C2.13162 53.1907 2.3502 53.2812 2.57812 53.2812H42.1094C42.3373 53.2812 42.5559 53.1907 42.717 53.0295C42.8782 52.8684 42.9688 52.6498 42.9688 52.4219V46.4062H52.4219C52.6498 46.4062 52.8684 46.3157 53.0295 46.1545C53.1907 45.9934 53.2812 45.7748 53.2812 45.5469V23.2031C53.2812 22.9752 53.1907 22.7566 53.0295 22.5955C52.8684 22.4343 52.6498 22.3438 52.4219 22.3438ZM29.2188 3.4375H41.25V22.3438H39.5312V6.875C39.5312 6.64708 39.4407 6.42849 39.2795 6.26733C39.1184 6.10617 38.8998 6.01562 38.6719 6.01562H29.2188V3.4375ZM12.8906 46.4062H37.8125V48.125H6.875V7.73438H10.3125V9.45312C10.3145 10.1363 10.5868 10.7908 11.0699 11.2739C11.5529 11.7569 12.2075 12.0292 12.8906 12.0312H31.7969C32.48 12.0292 33.1346 11.7569 33.6176 11.2739C34.1007 10.7908 34.373 10.1363 34.375 9.45312V7.73438H37.8125V22.3438H12.8906C12.6627 22.3438 12.4441 22.4343 12.283 22.5955C12.1218 22.7566 12.0312 22.9752 12.0312 23.2031V45.5469C12.0312 45.7748 12.1218 45.9934 12.283 46.1545C12.4441 46.3157 12.6627 46.4062 12.8906 46.4062ZM12.0312 9.45312V7.73438H32.6562V9.45312C32.6562 9.68105 32.5657 9.89963 32.4045 10.0608C32.2434 10.222 32.0248 10.3125 31.7969 10.3125H12.8906C12.6627 10.3125 12.4441 10.222 12.283 10.0608C12.1218 9.89963 12.0312 9.68105 12.0312 9.45312ZM17.1875 3.4375H27.5V6.01562H17.1875V3.4375ZM41.25 51.5625H3.4375V3.4375H15.4688V6.01562H6.01562C5.7877 6.01562 5.56912 6.10617 5.40796 6.26733C5.24679 6.42849 5.15625 6.64708 5.15625 6.875V48.9844C5.15625 49.2123 5.24679 49.4309 5.40796 49.592C5.56912 49.7532 5.7877 49.8438 6.01562 49.8438H38.6719C38.8998 49.8438 39.1184 49.7532 39.2795 49.592C39.4407 49.4309 39.5312 49.2123 39.5312 48.9844V46.4062H41.25V51.5625ZM51.5625 44.6875H13.75V24.0625H51.5625V44.6875Z" fill="#1FB8F0"/> <path d="M48.9844 30.9375C47.8448 30.9375 46.7518 30.4848 45.946 29.679C45.1402 28.8732 44.6875 27.7802 44.6875 26.6406C44.6875 26.4127 44.597 26.1941 44.4358 26.033C44.2746 25.8718 44.056 25.7812 43.8281 25.7812H21.4844C21.2565 25.7812 21.0379 25.8718 20.8767 26.033C20.7155 26.1941 20.625 26.4127 20.625 26.6406C20.625 27.2049 20.5139 27.7636 20.2979 28.285C20.082 28.8063 19.7655 29.28 19.3665 29.679C18.9675 30.078 18.4938 30.3945 17.9725 30.6104C17.4511 30.8264 16.8924 30.9375 16.3281 30.9375C16.1002 30.9375 15.8816 31.028 15.7205 31.1892C15.5593 31.3504 15.4688 31.569 15.4688 31.7969V36.9531C15.4688 37.181 15.5593 37.3996 15.7205 37.5608C15.8816 37.722 16.1002 37.8125 16.3281 37.8125C16.8924 37.8125 17.4511 37.9236 17.9725 38.1396C18.4938 38.3555 18.9675 38.672 19.3665 39.071C19.7655 39.47 20.082 39.9437 20.2979 40.465C20.5139 40.9864 20.625 41.5451 20.625 42.1094C20.625 42.3373 20.7155 42.5559 20.8767 42.717C21.0379 42.8782 21.2565 42.9688 21.4844 42.9688H43.8281C44.056 42.9688 44.2746 42.8782 44.4358 42.717C44.597 42.5559 44.6875 42.3373 44.6875 42.1094C44.6875 40.9698 45.1402 39.8768 45.946 39.071C46.7518 38.2652 47.8448 37.8125 48.9844 37.8125C49.2123 37.8125 49.4309 37.722 49.592 37.5608C49.7532 37.3996 49.8438 37.181 49.8438 36.9531V31.7969C49.8438 31.569 49.7532 31.3504 49.592 31.1892C49.4309 31.028 49.2123 30.9375 48.9844 30.9375ZM22.2836 41.25C22.0954 39.9654 21.4979 38.7757 20.5799 37.8576C19.6618 36.9396 18.4721 36.3421 17.1875 36.1539V32.5961C18.4721 32.4079 19.6618 31.8104 20.5799 30.8924C21.4979 29.9743 22.0954 28.7846 22.2836 27.5H27.5258C26.4514 28.2956 25.5785 29.332 24.977 30.5259C24.3755 31.7198 24.0622 33.0381 24.0622 34.375C24.0622 35.7119 24.3755 37.0302 24.977 38.2241C25.5785 39.418 26.4514 40.4544 27.5258 41.25H22.2836ZM32.6562 41.25C31.2965 41.25 29.9673 40.8468 28.8367 40.0914C27.7061 39.3359 26.8249 38.2622 26.3046 37.0059C25.7842 35.7497 25.6481 34.3674 25.9134 33.0338C26.1786 31.7001 26.8334 30.4751 27.7949 29.5136C28.7564 28.5522 29.9814 27.8974 31.315 27.6321C32.6486 27.3668 34.031 27.503 35.2872 28.0233C36.5434 28.5437 37.6172 29.4249 38.3726 30.5555C39.128 31.686 39.5312 33.0153 39.5312 34.375C39.5287 36.1976 38.8036 37.9448 37.5148 39.2336C36.2261 40.5224 34.4788 41.2475 32.6562 41.25ZM48.125 36.1539C46.8404 36.3421 45.6507 36.9396 44.7326 37.8576C43.8146 38.7757 43.2171 39.9654 43.0289 41.25H37.7867C38.8611 40.4544 39.734 39.418 40.3355 38.2241C40.937 37.0302 41.2503 35.7119 41.2503 34.375C41.2503 33.0381 40.937 31.7198 40.3355 30.5259C39.734 29.332 38.8611 28.2956 37.7867 27.5H43.0289C43.2171 28.7846 43.8146 29.9743 44.7326 30.8924C45.6507 31.8104 46.8404 32.4079 48.125 32.5961V36.1539Z" fill="#1FB8F0"/> </symbol>
<symbol id="credit-card" viewBox="0 0 480.48 480.48"> <g> <g> <g> <path d="M477.128,172.606l-53.68-139.568C413.276,6.654,383.641-6.488,357.257,3.684c-0.383,0.148-0.765,0.3-1.145,0.457
				l-268.256,111.2c-25.543,10.478-38.097,39.391-28.312,65.208l7.376,19.688H50c-27.601,0.031-49.969,22.399-50,50v180
				c0.031,27.601,22.399,49.969,50,50h340c27.601-0.031,49.969-22.399,50-50v-180c-0.016-2.714-0.257-5.422-0.72-8.096l9.288-3.76
				C474.339,227.818,487.005,198.648,477.128,172.606z M50,216.238h340c17.956,0.051,32.768,14.074,33.8,32H16.2
				C17.232,230.311,32.044,216.288,50,216.238z M130.408,168.046l53.472-26.744l10.992,27.496L141.4,195.534L130.408,168.046z
				 M424,430.238c-0.022,18.769-15.231,33.978-34,34H50c-18.769-0.022-33.978-15.231-34-34v-102h408V430.238z M424,312.238H16v-48
				h408V312.238z M442.568,223.598l-8.36,3.384c-8.635-16.424-25.652-26.718-44.208-26.744H167.776l40.84-20.424
				c3.724-1.859,5.401-6.263,3.856-10.128l-16.968-42.4c-1.641-4.102-6.296-6.098-10.398-4.458c-0.207,0.083-0.41,0.174-0.609,0.274
				l-67.832,33.936c-3.721,1.862-5.394,6.265-3.848,10.128l13.232,33.072H84l-9.472-25.264c-6.715-17.738,1.91-37.598,19.456-44.8
				l268.248-111.2c17.933-7.436,38.499,1.073,45.936,19.006c0.116,0.279,0.228,0.56,0.336,0.842l53.68,139.568
				C468.975,196.285,460.276,216.333,442.568,223.598z"/> <path d="M287.775,441.742c14.908,8.661,33.317,8.661,48.225,0c22.922,13.317,52.3,5.53,65.617-17.392s5.53-52.3-17.392-65.617
				c-7.357-4.274-15.717-6.516-24.225-6.496c-8.434,0.004-16.716,2.245-24,6.496c-22.922-13.317-52.3-5.531-65.617,17.391
				C257.066,399.047,264.853,428.424,287.775,441.742z M349.376,370.19c3.403-1.254,6.997-1.914,10.624-1.952
				c17.673,0,32,14.327,32,32c0,17.673-14.327,32-32,32c-3.627-0.038-7.221-0.698-10.624-1.952
				C363.54,412.757,363.54,387.718,349.376,370.19z M336,379.294c10.667,11.926,10.667,29.962,0,41.888
				C325.333,409.256,325.333,391.219,336,379.294z M312,368.238c3.627,0.037,7.221,0.698,10.624,1.952
				c-14.164,17.528-14.164,42.568,0,60.096c-3.403,1.254-6.997,1.914-10.624,1.952c-17.673,0-32-14.327-32-32
				C280,382.564,294.327,368.238,312,368.238z"/> <rect x="370.883" y="113.937" transform="matrix(-0.4062 -0.9138 0.9138 -0.4062 390.4948 565.1589)" width="16" height="83.52"/> <rect x="284.256" y="122.262" transform="matrix(0.908 -0.4191 0.4191 0.908 -22.8353 156.5479)" width="121.408" height="15.992"/> </g> </g> </g>                </symbol>
<symbol id="delivery" viewBox="0 0 512 512"> <g> <g> <path d="M476.158,231.363l-13.259-53.035c3.625-0.77,6.345-3.986,6.345-7.839v-8.551c0-18.566-15.105-33.67-33.67-33.67h-60.392
			V110.63c0-9.136-7.432-16.568-16.568-16.568H50.772c-9.136,0-16.568,7.432-16.568,16.568V256c0,4.427,3.589,8.017,8.017,8.017
			c4.427,0,8.017-3.589,8.017-8.017V110.63c0-0.295,0.239-0.534,0.534-0.534h307.841c0.295,0,0.534,0.239,0.534,0.534v145.372
			c0,4.427,3.589,8.017,8.017,8.017c4.427,0,8.017-3.589,8.017-8.017v-9.088h94.569c0.008,0,0.014,0.002,0.021,0.002
			c0.008,0,0.015-0.001,0.022-0.001c11.637,0.008,21.518,7.646,24.912,18.171h-24.928c-4.427,0-8.017,3.589-8.017,8.017v17.102
			c0,13.851,11.268,25.119,25.119,25.119h9.086v35.273h-20.962c-6.886-19.883-25.787-34.205-47.982-34.205
			s-41.097,14.322-47.982,34.205h-3.86v-60.393c0-4.427-3.589-8.017-8.017-8.017c-4.427,0-8.017,3.589-8.017,8.017v60.391H192.817
			c-6.886-19.883-25.787-34.205-47.982-34.205s-41.097,14.322-47.982,34.205H50.772c-0.295,0-0.534-0.239-0.534-0.534v-17.637
			h34.739c4.427,0,8.017-3.589,8.017-8.017s-3.589-8.017-8.017-8.017H8.017c-4.427,0-8.017,3.589-8.017,8.017
			s3.589,8.017,8.017,8.017h26.188v17.637c0,9.136,7.432,16.568,16.568,16.568h43.304c-0.002,0.178-0.014,0.355-0.014,0.534
			c0,27.996,22.777,50.772,50.772,50.772s50.772-22.776,50.772-50.772c0-0.18-0.012-0.356-0.014-0.534h180.67
			c-0.002,0.178-0.014,0.355-0.014,0.534c0,27.996,22.777,50.772,50.772,50.772c27.995,0,50.772-22.776,50.772-50.772
			c0-0.18-0.012-0.356-0.014-0.534h26.203c4.427,0,8.017-3.589,8.017-8.017v-85.511C512,251.989,496.423,234.448,476.158,231.363z
			 M375.182,144.301h60.392c9.725,0,17.637,7.912,17.637,17.637v0.534h-78.029V144.301z M375.182,230.881v-52.376h71.235
			l13.094,52.376H375.182z M144.835,401.904c-19.155,0-34.739-15.583-34.739-34.739s15.584-34.739,34.739-34.739
			c19.155,0,34.739,15.583,34.739,34.739S163.99,401.904,144.835,401.904z M427.023,401.904c-19.155,0-34.739-15.583-34.739-34.739
			s15.584-34.739,34.739-34.739c19.155,0,34.739,15.583,34.739,34.739S446.178,401.904,427.023,401.904z M495.967,299.29h-9.086
			c-5.01,0-9.086-4.076-9.086-9.086v-9.086h18.171V299.29z"/> </g> </g> <g> <g> <path d="M144.835,350.597c-9.136,0-16.568,7.432-16.568,16.568c0,9.136,7.432,16.568,16.568,16.568
			c9.136,0,16.568-7.432,16.568-16.568C161.403,358.029,153.971,350.597,144.835,350.597z"/> </g> </g> <g> <g> <path d="M427.023,350.597c-9.136,0-16.568,7.432-16.568,16.568c0,9.136,7.432,16.568,16.568,16.568
			c9.136,0,16.568-7.432,16.568-16.568C443.591,358.029,436.159,350.597,427.023,350.597z"/> </g> </g> <g> <g> <path d="M332.96,316.393H213.244c-4.427,0-8.017,3.589-8.017,8.017s3.589,8.017,8.017,8.017H332.96
			c4.427,0,8.017-3.589,8.017-8.017S337.388,316.393,332.96,316.393z"/> </g> </g> <g> <g> <path d="M127.733,282.188H25.119c-4.427,0-8.017,3.589-8.017,8.017s3.589,8.017,8.017,8.017h102.614
			c4.427,0,8.017-3.589,8.017-8.017S132.16,282.188,127.733,282.188z"/> </g> </g> <g> <g> <path d="M278.771,173.37c-3.13-3.13-8.207-3.13-11.337,0.001l-71.292,71.291l-37.087-37.087c-3.131-3.131-8.207-3.131-11.337,0
			c-3.131,3.131-3.131,8.206,0,11.337l42.756,42.756c1.565,1.566,3.617,2.348,5.668,2.348s4.104-0.782,5.668-2.348l76.96-76.96
			C281.901,181.576,281.901,176.501,278.771,173.37z"/> </g> </g>                </symbol>
<symbol id="firewall" viewBox="0 0 60.066 60.066"> <g> <path d="M55.263,35.668L55.263,35.668l-3.327-3.791c-0.262-0.297-0.677-0.413-1.053-0.294c-0.378,0.119-0.649,0.45-0.693,0.845
		c-0.078,0.71-0.179,1.394-0.292,2.038c-0.569-2.506-1.532-5.002-2.872-7.474V9.001c0-0.553-0.447-1-1-1
		c-14.628,0-21.169-7.565-21.231-7.641c-0.189-0.227-0.442-0.378-0.77-0.358c-0.295,0-0.575,0.131-0.766,0.356
		c-0.064,0.077-6.605,7.643-21.233,7.643c-0.553,0-1,0.447-1,1v19.085c0,10.433,4.69,20.348,12.546,26.521
		c3.167,2.489,6.589,4.29,10.17,5.353c0.093,0.027,0.188,0.041,0.284,0.041s0.191-0.014,0.284-0.041
		c3.293-0.977,6.448-2.586,9.398-4.772c2.736,3.074,6.653,4.853,10.769,4.879c0.03,0,0.061,0,0.092,0
		c4.116,0,8.049-1.749,10.803-4.808C60.304,49.78,60.257,41.358,55.263,35.668z M24.026,57.956
		c-1.804-0.558-3.564-1.326-5.269-2.283c0.163-0.178,0.269-0.411,0.269-0.672c0-0.552-0.448-1-1-1c-0.435,0-0.796,0.282-0.933,0.67
		c-0.775-0.504-1.537-1.049-2.284-1.636c-0.042-0.033-0.081-0.07-0.123-0.103c0.107,0.039,0.22,0.069,0.341,0.069
		c0.552,0,1-0.448,1-1c0-0.552-0.448-1-1-1s-1,0.448-1,1c0,0.194,0.07,0.365,0.166,0.518c-1.939-1.613-3.661-3.472-5.136-5.525
		c0.538-0.017,0.97-0.452,0.97-0.994c0-0.552-0.448-1-1-1c-0.409,0-0.759,0.247-0.914,0.6c-0.437-0.684-0.853-1.383-1.238-2.102
		c0.088-0.149,0.152-0.313,0.152-0.498c0-0.516-0.396-0.925-0.897-0.979c-1.085-2.307-1.893-4.762-2.416-7.3
		c0.191-0.182,0.313-0.436,0.313-0.721c0-0.414-0.251-0.768-0.609-0.92c-0.206-1.344-0.327-2.709-0.366-4.085
		c0.54-0.014,0.975-0.452,0.975-0.995c0-0.552-0.448-1-1-1v-4c0.552,0,1-0.448,1-1c0-0.552-0.448-1-1-1v-4c0.552,0,1-0.448,1-1
		c0-0.552-0.448-1-1-1v-4c0.552,0,1-0.448,1-1c0-0.021-0.01-0.038-0.012-0.058c1.46-0.066,2.837-0.2,4.132-0.393
		c-0.071,0.137-0.12,0.286-0.12,0.451c0,0.552,0.448,1,1,1s1-0.448,1-1c0-0.281-0.118-0.533-0.304-0.715
		c2.867-0.553,5.294-1.372,7.306-2.278c0.004,0.549,0.449,0.993,0.998,0.993c0.552,0,1-0.448,1-1c0-0.318-0.158-0.588-0.388-0.772
		c0.808-0.425,1.529-0.854,2.172-1.272c0.072,0.016,0.14,0.044,0.216,0.044c0.506,0,0.907-0.382,0.974-0.87
		c0.886-0.654,1.567-1.246,2.026-1.687c2.135,2.049,8.758,7.273,21,7.546v14.121c-0.14-0.071-0.296-0.11-0.456-0.11
		c-0.001,0-0.001,0-0.001,0c-0.288,0-0.562,0.124-0.752,0.34l-3.249,3.701c-3.337,3.801-5.183,8.613-5.293,13.493
		c-0.203-0.46-0.397-0.955-0.583-1.461c-0.233-0.633-0.45-1.289-0.628-1.972c-0.101-0.387-0.421-0.676-0.816-0.736
		c-0.099-0.015-0.198-0.015-0.294-0.001c-0.287,0.041-0.546,0.205-0.705,0.458c-0.02,0.031-0.035,0.064-0.055,0.096
		c-0.179,0.291-0.348,0.585-0.504,0.885c-0.056,0.108-0.104,0.218-0.157,0.327c-0.114,0.232-0.225,0.464-0.326,0.7
		c-0.048,0.113-0.089,0.227-0.134,0.34c-0.096,0.242-0.187,0.484-0.269,0.729c-0.034,0.103-0.065,0.206-0.097,0.309
		c-0.082,0.265-0.158,0.532-0.224,0.801c-0.021,0.085-0.041,0.17-0.06,0.255c-0.068,0.298-0.126,0.596-0.176,0.897
		c-0.01,0.059-0.02,0.117-0.028,0.176c-0.051,0.341-0.091,0.683-0.118,1.026c-0.002,0.021-0.004,0.042-0.006,0.063
		c-0.141,1.885,0.081,3.788,0.666,5.596c0.023,0.071,0.05,0.14,0.073,0.211c0.09,0.265,0.185,0.528,0.291,0.788
		c0.054,0.134,0.113,0.265,0.171,0.397c0.083,0.188,0.168,0.375,0.259,0.56c0.086,0.176,0.178,0.35,0.272,0.523
		c0.071,0.13,0.144,0.26,0.219,0.388c0.122,0.209,0.249,0.415,0.381,0.618c0.022,0.034,0.041,0.069,0.063,0.102
		C29.824,55.582,26.981,57.042,24.026,57.956z M53.885,53.921c-2.393,2.658-5.849,4.177-9.396,4.146
		c-3.578-0.022-6.984-1.578-9.345-4.268c-0.166-0.19-0.323-0.385-0.476-0.583c-0.003-0.004-0.004-0.01-0.007-0.014
		c-0.334-0.431-0.634-0.879-0.904-1.342c-0.007-0.013-0.016-0.025-0.023-0.038c-0.25-0.432-0.467-0.878-0.662-1.331
		c-0.027-0.064-0.056-0.128-0.083-0.192c-0.171-0.416-0.314-0.841-0.438-1.27c-0.031-0.107-0.062-0.215-0.09-0.323
		c-0.105-0.403-0.189-0.811-0.253-1.222c-0.021-0.133-0.039-0.267-0.055-0.401c-0.05-0.4-0.083-0.802-0.094-1.206
		c-0.004-0.137-0.002-0.273-0.002-0.41c0.002-0.41,0.018-0.82,0.06-1.229c0.012-0.116,0.03-0.232,0.045-0.348
		c0.056-0.432,0.127-0.862,0.229-1.288c0.018-0.077,0.042-0.152,0.062-0.228c0.116-0.45,0.252-0.896,0.419-1.334
		c0.006-0.016,0.011-0.033,0.017-0.049c1.045,2.773,2.375,4.892,2.86,5.624c0.102,0.154,0.18,0.268,0.195,0.29
		c0.272,0.388,0.783,0.525,1.216,0.34c0.436-0.19,0.677-0.659,0.579-1.123l-0.038-0.175c-0.322-1.45-0.462-2.925-0.427-4.393
		c0.104-4.405,1.778-8.752,4.796-12.191l2.427-2.766c0.042,0.071,0.082,0.145,0.124,0.216c2.584,4.348,3.901,8.765,3.901,13.144
		c0,0.484,0.347,0.898,0.823,0.984s0.945-0.183,1.114-0.637c0.042-0.111,0.855-2.327,1.405-5.475l1.894,2.156
		C58.086,41.916,58.139,49.195,53.885,53.921z"/> <circle cx="24.026" cy="7.001" r="1"/> <circle cx="6.026" cy="13.001" r="1"/> <circle cx="12.026" cy="13.001" r="1"/> <circle cx="15.026" cy="10.001" r="1"/> <circle cx="18.026" cy="13.001" r="1"/> <circle cx="21.026" cy="10.001" r="1"/> <circle cx="24.026" cy="13.001" r="1"/> <circle cx="6.026" cy="19.001" r="1"/> <circle cx="9.026" cy="16.001" r="1"/> <circle cx="12.026" cy="19.001" r="1"/> <circle cx="15.026" cy="16.001" r="1"/> <circle cx="18.026" cy="19.001" r="1"/> <circle cx="21.026" cy="16.001" r="1"/> <circle cx="24.026" cy="19.001" r="1"/> <circle cx="6.026" cy="25.001" r="1"/> <circle cx="9.026" cy="22.001" r="1"/> <circle cx="12.026" cy="25.001" r="1"/> <circle cx="15.026" cy="22.001" r="1"/> <circle cx="18.026" cy="25.001" r="1"/> <circle cx="21.026" cy="22.001" r="1"/> <circle cx="24.026" cy="25.001" r="1"/> <circle cx="6.026" cy="31.001" r="1"/> <circle cx="9.026" cy="28.001" r="1"/> <circle cx="12.026" cy="31.001" r="1"/> <circle cx="15.026" cy="28.001" r="1"/> <circle cx="18.026" cy="31.001" r="1"/> <circle cx="21.026" cy="28.001" r="1"/> <circle cx="24.026" cy="31.001" r="1"/> <circle cx="6.026" cy="37.001" r="1"/> <circle cx="9.026" cy="34.001" r="1"/> <circle cx="12.026" cy="37.001" r="1"/> <circle cx="15.026" cy="34.001" r="1"/> <circle cx="18.026" cy="37.001" r="1"/> <circle cx="21.026" cy="34.001" r="1"/> <circle cx="24.026" cy="37.001" r="1"/> <circle cx="9.026" cy="40.001" r="1"/> <circle cx="12.026" cy="43.001" r="1"/> <circle cx="15.026" cy="40.001" r="1"/> <circle cx="18.026" cy="43.001" r="1"/> <circle cx="21.026" cy="40.001" r="1"/> <circle cx="24.026" cy="43.001" r="1"/> <circle cx="12.026" cy="49.001" r="1"/> <circle cx="15.026" cy="46.001" r="1"/> <circle cx="18.026" cy="49.001" r="1"/> <circle cx="21.026" cy="46.001" r="1"/> <circle cx="24.026" cy="49.001" r="1"/> <circle cx="21.026" cy="52.001" r="1"/> <circle cx="24.026" cy="55.001" r="1"/> </g>                </symbol>
<symbol id="industrial-robot" viewBox="0 0 480 480"><path d="m472 352h-24v-296c-.035156-30.914062-25.085938-55.9648438-56-56h-32c-30.914062.0351562-55.964844 25.085938-56 56h-128c0-13.253906-10.746094-24-24-24h-48c-13.253906 0-24 10.746094-24 24v104c0 4.417969 3.582031 8 8 8h16v24h-24c-4.417969 0-8 3.582031-8 8v120c0 2.519531 1.1875 4.890625 3.199219 6.398438l32 24c2.425781 1.820312 5.667969 2.113281 8.378906.757812s4.421875-4.125 4.421875-7.15625v-64h16v64c0 3.03125 1.710938 5.800781 4.421875 7.15625s5.953125 1.0625 8.378906-.757812l32-24c2.011719-1.507813 3.199219-3.878907 3.199219-6.398438v-120c0-4.417969-3.582031-8-8-8h-24v-24h16c4.417969 0 8-3.582031 8-8v-24h128v216h-56c-4.417969 0-8 3.582031-8 8v24h-232c-4.417969 0-8 3.582031-8 8v64c0 4.417969 3.582031 8 8 8h232v8c0 4.417969 3.582031 8 8 8h224c4.417969 0 8-3.582031 8-8v-112c0-4.417969-3.582031-8-8-8zm-304-36-16 12v-56c0-4.417969-3.582031-8-8-8h-32c-4.417969 0-8 3.582031-8 8v56l-16-12v-68h80zm0-84h-80v-24h80zm-32-40h-16v-24h16zm24-40h-64v-96c0-4.417969 3.582031-8 8-8h48c4.417969 0 8 3.582031 8 8zm16-32v-48h128v48zm144-64c.027344-22.082031 17.917969-39.972656 40-40h32c22.082031.027344 39.972656 17.917969 40 40v296h-112zm-304 344h224v16h-224zm0 48v-16h224v16zm240 16v-96h64v24c0 4.417969 3.582031 8 8 8s8-3.582031 8-8v-24h16v24c0 4.417969 3.582031 8 8 8s8-3.582031 8-8v-24h16v24c0 4.417969 3.582031 8 8 8s8-3.582031 8-8v-24h16v24c0 4.417969 3.582031 8 8 8s8-3.582031 8-8v-24h32v64h-104c-4.417969 0-8 3.582031-8 8s3.582031 8 8 8h104v16zm0 0"/><path d="m328 432h-8c-4.417969 0-8 3.582031-8 8s3.582031 8 8 8h8c4.417969 0 8-3.582031 8-8s-3.582031-8-8-8zm0 0"/><path d="m376 96c17.671875 0 32-14.328125 32-32s-14.328125-32-32-32-32 14.328125-32 32 14.328125 32 32 32zm0-48c8.835938 0 16 7.164062 16 16s-7.164062 16-16 16-16-7.164062-16-16 7.164062-16 16-16zm0 0"/><path d="m120 64c-4.417969 0-8 3.582031-8 8v48c0 4.417969 3.582031 8 8 8s8-3.582031 8-8v-48c0-4.417969-3.582031-8-8-8zm0 0"/></symbol>
<symbol id="stopwatch" viewBox="0 0 60 60"> <g> <path d="M32.53,30.553l-12.944-9.363c-0.396-0.285-0.945-0.243-1.293,0.104c-0.348,0.348-0.391,0.896-0.104,1.293l9.365,12.946
		c0.614,0.845,1.563,1.376,2.604,1.457C30.252,36.997,30.345,37,30.437,37c0.942,0,1.848-0.372,2.519-1.044
		c0.737-0.737,1.114-1.756,1.033-2.797S33.377,31.169,32.53,30.553z M31.542,34.542c-0.324,0.323-0.775,0.488-1.228,0.453
		c-0.456-0.035-0.873-0.269-1.141-0.637l-5.713-7.897l7.895,5.711c0.371,0.27,0.604,0.687,0.64,1.144
		C32.031,33.771,31.865,34.219,31.542,34.542z"/> <path d="M56.081,26.022c-0.001-0.003,0-0.007-0.001-0.01c-0.001-0.004-0.004-0.007-0.005-0.011
		c-0.612-2.279-1.518-4.437-2.67-6.437c-0.01-0.021-0.01-0.043-0.022-0.064c-0.012-0.02-0.031-0.031-0.044-0.05
		c-1.011-1.735-2.207-3.347-3.566-4.809l2.147-2.147l1.415,1.414l4.242-4.242l-4.242-4.243l-4.243,4.243l1.414,1.414l-2.147,2.147
		c-1.462-1.358-3.074-2.555-4.809-3.566c-0.019-0.013-0.03-0.032-0.05-0.044c-0.02-0.012-0.044-0.011-0.064-0.022
		c-2-1.153-4.158-2.058-6.436-2.67c-0.004-0.001-0.007-0.004-0.011-0.005c-0.004-0.001-0.007,0-0.01,0
		C35.687,6.574,34.359,6.322,33,6.171V5h1.5C35.879,5,37,3.879,37,2.5S35.879,0,34.5,0h-9C24.121,0,23,1.121,23,2.5S24.121,5,25.5,5
		H27v1.171c-1.359,0.151-2.687,0.403-3.978,0.749c-0.004,0.001-0.007,0-0.01,0.001c-0.004,0.001-0.007,0.004-0.011,0.005
		c-2.278,0.612-4.436,1.518-6.436,2.67c-0.021,0.01-0.044,0.01-0.065,0.022c-0.02,0.012-0.031,0.031-0.05,0.044
		c-1.734,1.011-3.347,2.207-4.809,3.566L9.494,11.08l1.414-1.414L6.665,5.423L2.423,9.666l4.242,4.242l1.415-1.414l2.147,2.147
		c-1.358,1.462-2.555,3.074-3.565,4.809c-0.013,0.019-0.033,0.03-0.044,0.05c-0.012,0.021-0.011,0.043-0.022,0.064
		c-1.153,2-2.058,4.158-2.67,6.437c-0.001,0.004-0.004,0.007-0.005,0.011c-0.001,0.003,0,0.007-0.001,0.01
		C3.323,28.25,3,30.587,3,33s0.323,4.75,0.919,6.978c0.001,0.004,0,0.007,0.001,0.01c0.001,0.005,0.005,0.009,0.006,0.014
		c0.612,2.278,1.517,4.435,2.669,6.434c0.01,0.021,0.01,0.043,0.022,0.064c0.017,0.029,0.041,0.051,0.06,0.078
		c1.165,1.993,2.573,3.827,4.191,5.454c0.016,0.019,0.022,0.042,0.04,0.06s0.041,0.024,0.06,0.04
		c1.634,1.626,3.478,3.039,5.482,4.207c0.019,0.013,0.03,0.032,0.05,0.044c0.03,0.017,0.063,0.025,0.094,0.039
		c1.991,1.144,4.14,2.044,6.407,2.653c0.004,0.001,0.007,0.004,0.011,0.005c0.005,0.001,0.01,0.001,0.015,0.002
		C25.253,59.678,27.589,60,30,60s4.747-0.322,6.973-0.918c0.005-0.001,0.01,0,0.015-0.002c0.004-0.001,0.007-0.004,0.011-0.005
		c2.267-0.609,4.415-1.509,6.407-2.653c0.031-0.014,0.064-0.021,0.094-0.039c0.02-0.012,0.031-0.031,0.05-0.044
		c2.004-1.168,3.847-2.581,5.482-4.207c0.019-0.016,0.042-0.022,0.06-0.04s0.024-0.042,0.04-0.06
		c1.618-1.627,3.026-3.461,4.191-5.454c0.019-0.027,0.043-0.048,0.06-0.078c0.012-0.021,0.011-0.043,0.022-0.064
		c1.152-1.999,2.057-4.156,2.669-6.434c0.001-0.005,0.005-0.009,0.006-0.014c0.001-0.003,0-0.007,0.001-0.01
		C56.677,37.75,57,35.413,57,33S56.677,28.25,56.081,26.022z M53.335,8.251l1.414,1.415l-1.414,1.414L51.92,9.666L53.335,8.251z
		 M5.251,9.666l1.414-1.415L8.08,9.666L6.665,11.08L5.251,9.666z M51.957,39.919l1.915,0.513c-0.455,1.458-1.045,2.857-1.747,4.188
		l-1.707-0.986c-0.478-0.277-1.09-0.114-1.366,0.366c-0.276,0.479-0.112,1.09,0.366,1.366l1.703,0.983
		c-0.813,1.282-1.736,2.486-2.762,3.596l-1.389-1.389c-0.391-0.391-1.023-0.391-1.414,0s-0.391,1.023,0,1.414l1.389,1.389
		c-1.11,1.026-2.314,1.949-3.596,2.762l-0.983-1.703c-0.277-0.48-0.89-0.644-1.366-0.366c-0.479,0.276-0.643,0.888-0.366,1.366
		l0.986,1.707c-1.331,0.702-2.729,1.292-4.188,1.747l-0.513-1.914c-0.143-0.534-0.691-0.852-1.225-0.707
		c-0.533,0.143-0.85,0.691-0.707,1.225l0.511,1.908c-1.456,0.328-2.959,0.53-4.498,0.591V56c0-0.553-0.447-1-1-1s-1,0.447-1,1v1.975
		c-1.539-0.061-3.042-0.263-4.498-0.591l0.511-1.908c0.143-0.533-0.174-1.082-0.707-1.225c-0.533-0.144-1.082,0.173-1.225,0.707
		l-0.513,1.914c-1.458-0.455-2.857-1.045-4.188-1.747l0.986-1.707c0.276-0.479,0.112-1.09-0.366-1.366
		c-0.478-0.277-1.09-0.114-1.366,0.366l-0.983,1.703c-1.282-0.813-2.486-1.736-3.596-2.762l1.389-1.389
		c0.391-0.391,0.391-1.023,0-1.414s-1.023-0.391-1.414,0l-1.389,1.389c-1.026-1.11-1.949-2.314-2.762-3.596l1.703-0.983
		c0.479-0.276,0.643-0.888,0.366-1.366c-0.277-0.48-0.89-0.644-1.366-0.366l-1.707,0.986c-0.702-1.331-1.292-2.729-1.747-4.188
		l1.915-0.513c0.533-0.143,0.85-0.691,0.707-1.225c-0.142-0.534-0.69-0.852-1.225-0.707l-1.909,0.511
		C5.289,37.042,5.086,35.539,5.025,34H7c0.553,0,1-0.447,1-1s-0.447-1-1-1H5.025c0.061-1.539,0.263-3.042,0.591-4.498l1.909,0.512
		c0.087,0.023,0.174,0.034,0.26,0.034c0.441,0,0.845-0.294,0.965-0.741c0.144-0.533-0.174-1.082-0.707-1.225l-1.915-0.514
		c0.455-1.458,1.045-2.857,1.747-4.188l1.707,0.986C9.738,22.457,9.91,22.5,10.08,22.5c0.346,0,0.682-0.179,0.867-0.5
		c0.276-0.479,0.112-1.09-0.366-1.366l-1.703-0.983c0.813-1.282,1.736-2.486,2.762-3.596l1.389,1.389
		c0.195,0.195,0.451,0.293,0.707,0.293s0.512-0.098,0.707-0.293c0.391-0.391,0.391-1.023,0-1.414l-1.389-1.389
		c1.11-1.025,2.314-1.949,3.596-2.762l0.983,1.704c0.186,0.32,0.521,0.5,0.867,0.5c0.17,0,0.342-0.043,0.499-0.134
		c0.479-0.276,0.643-0.888,0.366-1.366l-0.986-1.708c1.331-0.702,2.729-1.292,4.188-1.747l0.513,1.915
		c0.119,0.446,0.523,0.741,0.965,0.741c0.086,0,0.173-0.011,0.26-0.034c0.533-0.143,0.85-0.691,0.707-1.225l-0.511-1.909
		c1.172-0.264,2.373-0.445,3.6-0.537c0.31-0.023,0.59-0.04,0.861-0.053c0.013,0,0.025,0,0.038-0.001V10c0,0.553,0.447,1,1,1
		s1-0.447,1-1V8.025c0.013,0,0.025,0,0.038,0.001c0.271,0.013,0.55,0.03,0.861,0.053c1.227,0.093,2.429,0.273,3.6,0.537
		l-0.511,1.909c-0.143,0.533,0.174,1.082,0.707,1.225c0.087,0.023,0.174,0.034,0.26,0.034c0.441,0,0.846-0.295,0.965-0.741
		l0.513-1.915c1.458,0.455,2.857,1.045,4.188,1.747l-0.986,1.708c-0.276,0.479-0.112,1.09,0.366,1.366
		c0.157,0.091,0.329,0.134,0.499,0.134c0.346,0,0.682-0.18,0.867-0.5l0.983-1.704c1.282,0.813,2.486,1.737,3.596,2.762l-1.389,1.389
		c-0.391,0.391-0.391,1.023,0,1.414c0.195,0.195,0.451,0.293,0.707,0.293s0.512-0.098,0.707-0.293l1.389-1.389
		c1.026,1.11,1.949,2.314,2.762,3.596l-1.703,0.983C48.94,20.91,48.776,21.521,49.053,22c0.186,0.321,0.521,0.5,0.867,0.5
		c0.17,0,0.342-0.043,0.499-0.134l1.707-0.986c0.702,1.331,1.292,2.729,1.747,4.188l-1.915,0.514
		c-0.533,0.143-0.851,0.691-0.707,1.225c0.12,0.447,0.523,0.741,0.965,0.741c0.086,0,0.173-0.011,0.26-0.034l1.909-0.512
		c0.328,1.456,0.53,2.959,0.591,4.498H53c-0.553,0-1,0.447-1,1s0.447,1,1,1h1.975c-0.061,1.539-0.263,3.042-0.591,4.499
		l-1.909-0.511c-0.531-0.144-1.082,0.174-1.225,0.707S51.424,39.776,51.957,39.919z M29,6.022V3h-3.5C25.225,3,25,2.775,25,2.5
		S25.225,2,25.5,2h9C34.775,2,35,2.225,35,2.5S34.775,3,34.5,3H31v3.022C30.65,6.007,30.321,6,30,6S29.35,6.007,29,6.022z"/> </g>                </symbol>
<symbol id="wholesaler" viewBox="0 0 481 481.6"><path d="m232.300781 201.601562h32v16h-32zm0 0"/><path d="m328.300781 201.601562h32v16h-32zm0 0"/><path d="m328.300781 265.601562h32v16h-32zm0 0"/><path d="m232.300781 265.601562h32v16h-32zm0 0"/><path d="m232.300781 329.601562h32v16h-32zm0 0"/><path d="m328.300781 329.601562h32v16h-32zm0 0"/><path d="m320.300781 433.601562h16v16h-16zm0 0"/><path d="m456.300781 124.800781-216-124.800781-216 124.800781v196.800781h16v-187.203124l200-115.199219 200 115.199219v331.203124h-80c4-4.800781 6.398438-10.402343 7.199219-16h32.800781c13.597657 0 24-10.402343 24-24v-40c0-13.601562-10.402343-24-24-24v-168c0-12.800781-10.402343-24-23.199219-24h-161.601562c-12.800781 0-23.199219 11.199219-23.199219 24v168h-16v-136h-16v16h-38.402343c-8.796876 0-16.796876 4.796876-20.796876 12.796876l-57.601562 108c-2.398438 3.203124-3.199219 7.203124-3.199219 11.203124v52c0 13.597657 10.398438 24 24 24h16.800781c1.597657 5.597657 4 11.199219 7.199219 16h-88v16h480v-16h-24zm-296.800781 324.800781h129.601562c1.597657 5.597657 4 11.199219 7.199219 16h-144c3.199219-4.800781 5.597657-10.402343 7.199219-16zm144.800781-8c0-13.601562 10.398438-24 24-24 13.597657 0 24 10.398438 24 24 0 13.597657-10.402343 24-24 24-13.601562 0-24-10.402343-24-24zm0-80v-48h80v48zm0-112h80v48h-80zm-16 48h-80v-48h80zm96-104v40h-80v-48h72.800781c4 0 7.199219 4 7.199219 8zm-168.800781-8h72.800781v48h-80v-40c0-4 3.199219-8 7.199219-8zm-7.199219 128h80v48h-80zm-93.601562-52c1.601562-2.402343 4-4 7.199219-4h38.402343v104h-98.402343zm-58.398438 164v-48h344c4.800781 0 8 3.199219 8 8v40c0 4.796876-3.199219 8-8 8h-32.800781c-4.800781-21.601562-25.601562-36-47.199219-31.203124-16 3.203124-28 15.203124-31.199219 31.203124h-129.601562c-4.800781-21.601562-25.601562-36-47.199219-31.203124-16 3.203124-28 15.203124-31.199219 31.203124h-16.800781c-4.800781 0-8-3.203124-8-8zm40 16c0-13.601562 10.398438-24 24-24 13.597657 0 24 10.398438 24 24 0 13.597657-10.402343 24-24 24-13.601562 0-24-10.402343-24-24zm0 0"/><path d="m112.300781 433.601562h16v16h-16zm0 0"/><path d="m288.300781 76.800781-48-28.800781-48 28.800781v68.800781h96zm-80 9.597657 24-14.398438v57.601562h-24zm64 43.203124h-24v-57.601562l24 14.398438zm0 0"/></symbol>
</svg>