<svg width="800" height="800" viewBox="0 0 800 800" fill="none" xmlns="http://www.w3.org/2000/svg">
<g clip-path="url(#clip0_514_17)">
<path fill-rule="evenodd" clip-rule="evenodd" d="M632.841 564.844C623.201 592.132 584.88 614.707 554.32 621.309C533.4 625.75 506.12 629.263 414.2 591.172C310.96 548.399 167.6 396.039 167.6 294.648C167.6 243.033 197.36 182.93 249.4 182.93C274.44 182.93 279.96 183.418 288.2 203.184C297.84 226.471 321.36 283.845 324.16 289.727C335.72 313.854 312.4 327.978 295.48 348.984C290.08 355.306 283.96 362.143 290.8 373.906C297.6 385.43 321.12 423.762 355.68 454.531C400.32 494.303 436.52 507.001 449.48 512.402C459.12 516.404 470.64 515.472 477.68 507.949C486.6 498.306 497.68 482.308 508.96 466.543C516.92 455.259 527.04 453.85 537.64 457.852C544.8 460.332 635.8 502.593 639.64 509.355C642.48 514.277 642.481 537.555 632.841 564.844ZM400.08 0H399.88C179.36 0 0 179.414 0 400C0 487.466 28.2003 568.614 76.1603 634.434L26.3202 783.066L180.04 733.945C243.28 775.798 318.76 800 400.08 800C620.6 800 800 620.586 800 400C800 179.414 620.6 0 400.08 0Z" fill="#333333"/>
</g>
<defs>
<clipPath id="clip0_514_17">
<rect width="800" height="800" fill="white"/>
</clipPath>
</defs>
</svg>
