<svg width="800" height="800" viewBox="0 0 800 800" fill="none" xmlns="http://www.w3.org/2000/svg">
<g clip-path="url(#clip0_513_2)">
<rect x="133" y="140" width="536" height="500" fill="white"/>
<path fill-rule="evenodd" clip-rule="evenodd" d="M399.884 0C179.371 0 0 179.421 0 399.996C0 487.474 28.2107 568.601 76.1668 634.449L26.3265 783.063L180.074 733.926C243.31 775.783 318.774 800 400.116 800C620.629 800 800 620.572 800 400.004C800 179.428 620.629 0.00661214 400.116 0.00661214L399.884 0ZM288.214 203.18C280.458 184.605 274.58 183.901 262.83 183.423C258.829 183.191 254.37 182.959 249.427 182.959C234.141 182.959 218.158 187.425 208.517 197.301C196.767 209.293 167.614 237.273 167.614 294.653C167.614 352.034 209.46 407.529 215.099 415.294C220.977 423.045 296.68 542.505 414.221 591.192C506.139 629.286 533.415 625.755 554.334 621.289C584.894 614.705 623.217 592.121 632.857 564.851C642.498 537.568 642.497 514.286 639.671 509.349C636.851 504.411 629.088 501.597 617.338 495.71C605.588 489.83 548.456 461.611 537.641 457.848C527.059 453.853 516.954 455.266 508.966 466.555C497.68 482.311 486.634 498.305 477.697 507.942C470.644 515.468 459.119 516.41 449.485 512.408C436.554 507.006 400.355 494.296 355.683 454.556C321.123 423.756 297.616 385.429 290.802 373.908C283.981 362.154 290.098 355.325 295.499 348.981C301.377 341.687 307.017 336.517 312.896 329.695C318.774 322.879 322.065 319.348 325.827 311.351C329.828 303.593 327.001 295.596 324.181 289.716C321.361 283.836 297.854 226.455 288.214 203.18Z" fill="#67C15E"/>
</g>
<defs>
<clipPath id="clip0_513_2">
<rect width="800" height="800" fill="white"/>
</clipPath>
</defs>
</svg>
